<svg width="479" height="66" viewBox="0 0 479 66" fill="none" xmlns="http://www.w3.org/2000/svg">
<path d="M19.592 57.688C17.0907 57.688 14.6827 57.352 12.368 56.68C10.0907 56.008 8.056 55.0187 6.264 53.712C4.50933 52.4427 3.10933 50.856 2.064 48.952C1.056 47.0853 0.552 44.92 0.552 42.456C0.552 40.9253 0.776 39.32 1.224 37.64C1.56 36.408 2.15733 35.2507 3.016 34.168C3.87467 33.0853 4.78933 32.208 5.76 31.536C6.73067 30.8267 7.51467 30.4533 8.112 30.416C8.56 30.416 8.784 30.5093 8.784 30.696C8.784 30.92 8.59733 31.1067 8.224 31.256C7.58933 31.48 6.86133 32.0027 6.04 32.824C5.21867 33.6453 4.472 34.672 3.8 35.904C3.16533 37.136 2.736 38.5173 2.512 40.048C2.4 40.7573 2.344 41.448 2.344 42.12C2.344 44.2853 2.81067 46.1333 3.744 47.664C4.67733 49.1947 5.90933 50.4267 7.44 51.36C8.97067 52.3307 10.632 53.0213 12.424 53.432C14.2533 53.88 16.064 54.104 17.856 54.104C19.536 54.104 21.0667 53.936 22.448 53.6C26.4053 52.704 29.8587 51.3787 32.808 49.624C35.7573 47.9067 38.2773 45.9093 40.368 43.632C42.496 41.3547 44.288 38.9653 45.744 36.464C47.2 33.9253 48.3947 31.424 49.328 28.96C48.656 28.96 48.0587 29.0347 47.536 29.184C47.0507 29.3333 46.528 29.5573 45.968 29.856C45.856 29.8933 45.6507 29.968 45.352 30.08C45.0533 30.1547 44.8293 30.192 44.68 30.192C44.344 30.192 44.176 30.08 44.176 29.856C44.176 29.7067 44.2507 29.5013 44.4 29.24C44.6613 28.8293 45.128 28.4 45.8 27.952C46.472 27.4667 47.1813 27.168 47.928 27.056H50.056C50.7653 25.3013 51.5307 23.4907 52.352 21.624C53.2107 19.72 54.032 17.9093 54.816 16.192C55.6 14.4747 56.3093 12.9627 56.944 11.656C57.5787 10.3493 58.0453 9.39733 58.344 8.8C56.2907 9.024 54.1627 9.22933 51.96 9.416C49.7573 9.56533 47.592 9.82666 45.464 10.2C43.336 10.536 41.32 11.096 39.416 11.88C37.4747 12.664 35.7387 13.784 34.208 15.24C32.7147 16.6587 31.5387 18.264 30.68 20.056C29.8213 21.8107 29.392 23.64 29.392 25.544C29.392 27.3733 29.896 28.8853 30.904 30.08C31.912 31.2747 33.2373 31.872 34.88 31.872C35.2533 31.872 35.6453 31.8347 36.056 31.76C36.4667 31.6853 36.896 31.5733 37.344 31.424C38.2027 31.088 38.9493 30.5467 39.584 29.8C40.256 29.0533 40.7973 28.2133 41.208 27.28C41.6187 26.3467 41.9173 25.432 42.104 24.536C42.328 23.64 42.44 22.912 42.44 22.352C42.44 21.904 42.384 21.6053 42.272 21.456C42.1227 21.2693 42.048 21.0827 42.048 20.896C42.048 20.6347 42.16 20.504 42.384 20.504C42.6453 20.504 42.8507 20.6533 43 20.952C43.224 21.4373 43.3733 21.9227 43.448 22.408C43.56 22.8933 43.616 23.3787 43.616 23.864C43.616 25.1333 43.3173 26.3653 42.72 27.56C42.1227 28.7173 41.3573 29.7253 40.424 30.584C39.4907 31.4427 38.4827 32.0773 37.4 32.488C36.9147 32.6747 36.4107 32.824 35.888 32.936C35.3653 33.0107 34.8613 33.048 34.376 33.048C32.808 33.048 31.3707 32.656 30.064 31.872C28.7947 31.0507 27.768 29.9493 26.984 28.568C26.2 27.1867 25.808 25.656 25.808 23.976C25.808 21.5867 26.3493 19.4773 27.432 17.648C28.5147 15.7813 29.9893 14.1947 31.856 12.888C33.76 11.5813 35.888 10.592 38.24 9.92C40.5173 9.248 42.8693 8.78133 45.296 8.52C47.76 8.25867 50.168 8.072 52.52 7.96C54.9093 7.81066 57.0933 7.64266 59.072 7.456C59.2213 7.232 59.52 6.80267 59.968 6.168C60.4533 5.53333 60.9947 4.89866 61.592 4.264C62.2267 3.592 62.8427 3.16267 63.44 2.976C63.8507 2.864 64.2427 2.808 64.616 2.808C65.176 2.808 65.6613 2.95733 66.072 3.256C66.4827 3.51733 66.688 3.94666 66.688 4.544C66.688 5.44 66.2773 6.20533 65.456 6.84C64.672 7.43733 63.7387 7.904 62.656 8.24C61.6107 8.576 60.7147 8.744 59.968 8.744C59.5573 9.56533 59.072 10.648 58.512 11.992C57.952 13.2987 57.3733 14.736 56.776 16.304C56.216 17.8347 55.656 19.328 55.096 20.784C54.536 22.24 54.032 23.528 53.584 24.648C53.1733 25.768 52.8747 26.5707 52.688 27.056C55.2267 27.056 57.7093 27.1307 60.136 27.28C62.5627 27.4293 64.784 27.5973 66.8 27.784C68.8533 27.9333 70.5333 28.008 71.84 28.008C71.9893 27.56 72.288 26.7573 72.736 25.6C73.184 24.4427 73.744 23.08 74.416 21.512C75.088 19.9067 75.816 18.264 76.6 16.584C77.4213 14.8667 78.2613 13.2427 79.12 11.712C80.016 10.1813 80.8747 8.89333 81.696 7.848C82.5547 6.80266 83.3387 6.14933 84.048 5.888C84.832 5.58933 85.4667 5.40266 85.952 5.328C86.4747 5.216 86.8667 5.16 87.128 5.16C87.352 5.16 87.464 5.19733 87.464 5.272C87.464 5.384 87.2027 5.57066 86.68 5.832C86.4187 5.944 85.8773 6.56 85.056 7.68C84.272 8.76266 83.32 10.2747 82.2 12.216C81.08 14.12 79.8853 16.416 78.616 19.104C77.384 21.7547 76.208 24.704 75.088 27.952C75.6853 27.952 76.4693 27.9333 77.44 27.896C78.4107 27.8587 79.12 27.7467 79.568 27.56C79.7173 27.4853 79.848 27.448 79.96 27.448C80.072 27.448 80.1653 27.448 80.24 27.448C80.464 27.448 80.576 27.504 80.576 27.616C80.576 27.7653 80.3893 27.9707 80.016 28.232C79.3067 28.7547 78.4293 29.128 77.384 29.352C76.3387 29.576 75.3867 29.7067 74.528 29.744C74.3413 30.416 74.0427 31.368 73.632 32.6C73.2587 33.7947 72.848 35.12 72.4 36.576C71.9893 38.032 71.6347 39.488 71.336 40.944C71.0373 42.3627 70.888 43.632 70.888 44.752C70.888 46.096 71.1307 47.0293 71.616 47.552C72.0267 48 72.4933 48.224 73.016 48.224C73.6133 48.224 74.192 48 74.752 47.552C75.7227 46.8427 76.6187 45.928 77.44 44.808C78.2987 43.6507 79.0827 42.4373 79.792 41.168C80.5387 39.8613 81.2107 38.6107 81.808 37.416C82.0693 36.8933 82.3307 36.632 82.592 36.632C82.7787 36.632 82.872 36.7627 82.872 37.024C82.872 37.248 82.7973 37.5093 82.648 37.808C81.864 39.4507 81.1547 40.8693 80.52 42.064C79.8853 43.2587 79.2133 44.36 78.504 45.368C77.7947 46.3387 76.8987 47.3467 75.816 48.392C75.256 48.9147 74.584 49.3627 73.8 49.736C73.0533 50.1467 72.2693 50.352 71.448 50.352C70.7387 50.352 70.0667 50.184 69.432 49.848C68.6853 49.4373 68.144 48.8213 67.808 48C67.472 47.1413 67.304 46.152 67.304 45.032C67.304 43.7627 67.4533 42.3813 67.752 40.888C68.088 39.3947 68.48 37.9387 68.928 36.52C69.4133 35.064 69.88 33.7387 70.328 32.544C70.776 31.3493 71.112 30.416 71.336 29.744C70.7013 29.744 69.6 29.7253 68.032 29.688C66.464 29.6133 64.6907 29.5573 62.712 29.52C60.7707 29.4453 58.848 29.3707 56.944 29.296C55.0773 29.184 53.5093 29.1093 52.24 29.072C51.0827 32.4693 49.5707 35.7733 47.704 38.984C45.8747 42.1573 43.7093 45.0507 41.208 47.664C38.7067 50.2773 35.9253 52.4427 32.864 54.16C29.84 55.9147 26.5547 57.016 23.008 57.464C22.6347 57.5013 22.0933 57.5387 21.384 57.576C20.6747 57.6507 20.0773 57.688 19.592 57.688ZM61.032 7.344C62.4507 7.12 63.384 6.82133 63.832 6.448C64.3173 6.03733 64.56 5.68267 64.56 5.384C64.56 5.16 64.4853 4.97333 64.336 4.824C64.224 4.67466 64.0933 4.6 63.944 4.6C63.7947 4.488 63.5333 4.6 63.16 4.936C62.7867 5.272 62.3947 5.68266 61.984 6.168C61.6107 6.616 61.2933 7.008 61.032 7.344ZM93.9429 48.168C93.5323 48.2053 93.0656 48.112 92.5429 47.888C92.0203 47.664 91.5536 47.2533 91.1429 46.656C90.7696 46.0587 90.5829 45.2187 90.5829 44.136C90.5829 43.24 90.7509 42.1573 91.0869 40.888C90.6389 41.5973 90.0603 42.4747 89.3509 43.52C88.6416 44.528 87.8763 45.424 87.0549 46.208C86.3456 46.88 85.6736 47.3653 85.0389 47.664C84.4043 47.9627 83.8256 48.112 83.3029 48.112C82.3323 48.112 81.5483 47.6827 80.9509 46.824C80.3536 45.928 80.0549 44.7707 80.0549 43.352C80.0549 41.8587 80.4283 40.16 81.1749 38.256C81.9216 36.352 83.1349 34.3733 84.8149 32.32C85.8976 31.0133 87.2043 29.968 88.7349 29.184C90.3029 28.3627 91.8336 27.952 93.3269 27.952C94.1856 27.952 95.0069 28.1013 95.7909 28.4C96.5749 28.6613 97.2656 29.1093 97.8629 29.744C98.1243 30.0053 98.2549 30.304 98.2549 30.64C98.2549 30.864 98.1616 31.0507 97.9749 31.2C97.7883 31.3493 97.5456 31.3867 97.2469 31.312C96.8363 30.0053 95.9589 29.352 94.6149 29.352C93.9803 29.352 93.2523 29.5573 92.4309 29.968C91.1616 30.64 89.8363 31.7413 88.4549 33.272C87.1109 34.8027 85.9349 36.3893 84.9269 38.032C84.7776 38.256 84.5349 38.6853 84.1989 39.32C83.9003 39.9547 83.6016 40.664 83.3029 41.448C83.0043 42.232 82.7989 42.9973 82.6869 43.744C82.6496 43.968 82.6309 44.136 82.6309 44.248C82.6309 44.3227 82.6309 44.4533 82.6309 44.64C82.6309 45.872 83.0976 46.488 84.0309 46.488C85.1509 46.488 86.4203 45.6667 87.8389 44.024C88.8096 42.8293 89.6869 41.5787 90.4709 40.272C91.2549 38.9653 92.0576 37.5653 92.8789 36.072C93.4389 35.064 93.9616 34.224 94.4469 33.552C94.9323 32.88 95.6229 32.544 96.5189 32.544C96.9296 32.544 97.3403 32.6 97.7509 32.712C98.1616 32.824 98.5909 32.8427 99.0389 32.768C98.7403 33.0667 98.3296 33.6267 97.8069 34.448C97.3216 35.2693 96.7989 36.2027 96.2389 37.248C95.6789 38.2933 95.1749 39.3573 94.7269 40.44C94.2789 41.5227 93.9616 42.456 93.7749 43.24C93.7376 43.464 93.6816 43.7813 93.6069 44.192C93.5696 44.6027 93.5509 44.9013 93.5509 45.088C93.5509 46.1333 93.8496 46.656 94.4469 46.656C95.0443 46.656 95.6789 46.3013 96.3509 45.592C97.0603 44.8827 97.7509 44.0053 98.4229 42.96C99.0949 41.9147 99.7109 40.8693 100.271 39.824C100.831 38.7413 101.279 37.864 101.615 37.192C101.764 36.8187 101.988 36.632 102.287 36.632C102.474 36.632 102.567 36.7627 102.567 37.024C102.567 37.136 102.511 37.3413 102.399 37.64C101.951 38.5733 101.41 39.6373 100.775 40.832C100.14 41.9893 99.4496 43.128 98.7029 44.248C97.9563 45.3307 97.1723 46.2453 96.3509 46.992C95.5669 47.7013 94.7643 48.0933 93.9429 48.168ZM93.0224 63.288C92.5744 63.288 92.1264 63.2133 91.6784 63.064C91.1931 62.952 90.7078 62.9333 90.2224 63.008C90.4464 62.784 90.8758 62.1307 91.5104 61.048C92.1451 60.0027 92.8918 58.696 93.7504 57.128C94.5718 55.56 95.4491 53.8613 96.3824 52.032C97.3158 50.2027 98.1931 48.4107 99.0144 46.656C99.8358 44.864 100.526 43.24 101.086 41.784C101.684 40.2907 102.057 39.1147 102.206 38.256C101.87 38.7413 101.534 39.0213 101.198 39.096C100.9 39.1333 100.825 39.0213 100.974 38.76C101.049 38.6107 101.198 38.256 101.422 37.696C101.684 37.0987 101.908 36.5947 102.094 36.184C102.393 35.4373 102.636 34.616 102.822 33.72C103.046 32.824 103.158 31.9653 103.158 31.144C103.158 30.6213 103.102 30.1733 102.99 29.8C102.878 29.4267 102.673 29.2213 102.374 29.184C102.374 29.184 102.58 29.1467 102.99 29.072C103.401 28.9973 103.83 28.9227 104.278 28.848C104.726 28.7733 105.025 28.736 105.174 28.736C105.398 28.6987 105.604 28.68 105.79 28.68C105.977 28.6427 106.145 28.624 106.294 28.624C106.63 28.624 106.854 28.7547 106.966 29.016C107.116 29.24 107.19 29.7253 107.19 30.472C107.19 31.4053 107.022 32.6 106.686 34.056C106.388 35.4747 106.033 36.7253 105.622 37.808C106.033 37.136 106.556 36.2773 107.19 35.232C107.862 34.1867 108.628 33.1227 109.486 32.04C110.345 30.9573 111.241 30.0613 112.174 29.352C113.108 28.6053 114.022 28.232 114.918 28.232C115.105 28.232 115.348 28.2693 115.646 28.344C116.692 28.6053 117.42 29.128 117.83 29.912C118.278 30.6587 118.502 31.5547 118.502 32.6C118.502 33.72 118.278 34.952 117.83 36.296C117.42 37.64 116.86 38.9653 116.15 40.272C115.441 41.5413 114.657 42.6987 113.798 43.744C112.753 45.0507 111.502 46.096 110.046 46.88C108.59 47.664 107.097 48.056 105.566 48.056C104.185 48.056 102.897 47.7013 101.702 46.992L96.3824 60.376C95.8598 61.496 95.3558 62.2613 94.8704 62.672C94.3851 63.0827 93.7691 63.288 93.0224 63.288ZM103.774 46.88C104.82 46.88 105.996 46.3947 107.302 45.424C108.609 44.4533 109.86 43.2213 111.054 41.728C112.286 40.1973 113.313 38.6667 114.134 37.136C114.694 36.0907 115.105 35.1387 115.366 34.28C115.628 33.384 115.758 32.6187 115.758 31.984C115.758 30.528 115.236 29.8 114.19 29.8C113.705 29.8 113.07 30.0613 112.286 30.584C111.54 31.1067 110.662 32.0587 109.654 33.44C108.572 34.9333 107.377 36.8187 106.07 39.096C104.801 41.336 103.494 43.7067 102.15 46.208C102.598 46.656 103.14 46.88 103.774 46.88ZM111.944 63.288C111.496 63.288 111.048 63.2133 110.6 63.064C110.115 62.952 109.63 62.9333 109.144 63.008C109.368 62.784 109.798 62.1307 110.432 61.048C111.067 60.0027 111.814 58.696 112.672 57.128C113.494 55.56 114.371 53.8613 115.304 52.032C116.238 50.2027 117.115 48.4107 117.936 46.656C118.758 44.864 119.448 43.24 120.008 41.784C120.606 40.2907 120.979 39.1147 121.128 38.256C120.792 38.7413 120.456 39.0213 120.12 39.096C119.822 39.1333 119.747 39.0213 119.896 38.76C119.971 38.6107 120.12 38.256 120.344 37.696C120.606 37.0987 120.83 36.5947 121.016 36.184C121.315 35.4373 121.558 34.616 121.744 33.72C121.968 32.824 122.08 31.9653 122.08 31.144C122.08 30.6213 122.024 30.1733 121.912 29.8C121.8 29.4267 121.595 29.2213 121.296 29.184C121.296 29.184 121.502 29.1467 121.912 29.072C122.323 28.9973 122.752 28.9227 123.2 28.848C123.648 28.7733 123.947 28.736 124.096 28.736C124.32 28.6987 124.526 28.68 124.712 28.68C124.899 28.6427 125.067 28.624 125.216 28.624C125.552 28.624 125.776 28.7547 125.888 29.016C126.038 29.24 126.112 29.7253 126.112 30.472C126.112 31.4053 125.944 32.6 125.608 34.056C125.31 35.4747 124.955 36.7253 124.544 37.808C124.955 37.136 125.478 36.2773 126.112 35.232C126.784 34.1867 127.55 33.1227 128.408 32.04C129.267 30.9573 130.163 30.0613 131.096 29.352C132.03 28.6053 132.944 28.232 133.84 28.232C134.027 28.232 134.27 28.2693 134.568 28.344C135.614 28.6053 136.342 29.128 136.752 29.912C137.2 30.6587 137.424 31.5547 137.424 32.6C137.424 33.72 137.2 34.952 136.752 36.296C136.342 37.64 135.782 38.9653 135.072 40.272C134.363 41.5413 133.579 42.6987 132.72 43.744C131.675 45.0507 130.424 46.096 128.968 46.88C127.512 47.664 126.019 48.056 124.488 48.056C123.107 48.056 121.819 47.7013 120.624 46.992L115.304 60.376C114.782 61.496 114.278 62.2613 113.792 62.672C113.307 63.0827 112.691 63.288 111.944 63.288ZM122.696 46.88C123.742 46.88 124.918 46.3947 126.224 45.424C127.531 44.4533 128.782 43.2213 129.976 41.728C131.208 40.1973 132.235 38.6667 133.056 37.136C133.616 36.0907 134.027 35.1387 134.288 34.28C134.55 33.384 134.68 32.6187 134.68 31.984C134.68 30.528 134.158 29.8 133.112 29.8C132.627 29.8 131.992 30.0613 131.208 30.584C130.462 31.1067 129.584 32.0587 128.576 33.44C127.494 34.9333 126.299 36.8187 124.992 39.096C123.723 41.336 122.416 43.7067 121.072 46.208C121.52 46.656 122.062 46.88 122.696 46.88ZM131.818 65.864C129.877 65.864 128.496 65.472 127.674 64.688C126.853 63.9413 126.442 63.0453 126.442 62C126.442 61.44 126.517 60.9547 126.666 60.544C126.816 60.1333 127.04 59.6107 127.338 58.976C127.861 57.8933 128.589 56.96 129.522 56.176C130.456 55.392 131.464 54.7573 132.546 54.272C134.488 53.376 136.69 52.648 139.154 52.088C141.656 51.528 144.045 50.912 146.322 50.24C147.032 49.008 147.685 47.608 148.282 46.04C148.88 44.4347 149.421 42.8853 149.906 41.392C150.392 39.8613 150.784 38.6107 151.082 37.64C150.634 38.4613 150.056 39.4693 149.346 40.664C148.674 41.8213 147.909 42.96 147.05 44.08C146.192 45.2 145.258 46.1333 144.25 46.88C143.28 47.6267 142.253 48 141.17 48C140.76 48 140.256 47.9067 139.658 47.72C139.098 47.5333 138.594 47.1973 138.146 46.712C137.736 46.1893 137.53 45.424 137.53 44.416C137.53 43.4453 137.754 42.512 138.202 41.616C138.688 40.6827 139.136 39.7867 139.546 38.928C139.434 38.928 139.304 38.8907 139.154 38.816C139.042 38.7413 138.986 38.6293 138.986 38.48C138.986 38.3307 139.024 38.1813 139.098 38.032C139.248 37.7333 139.416 37.416 139.602 37.08C139.789 36.744 139.957 36.3893 140.106 36.016C140.666 34.8587 141.226 33.7573 141.786 32.712C142.346 31.6293 142.832 30.6773 143.242 29.856C143.653 29.0347 144.362 28.624 145.37 28.624H148.842C148.581 28.848 148.245 29.1093 147.834 29.408C147.461 29.6693 147.106 30.08 146.77 30.64C145.762 32.3573 144.885 34.0187 144.138 35.624C143.392 37.192 142.589 38.872 141.73 40.664C141.32 41.5227 141.021 42.3067 140.834 43.016C140.648 43.7253 140.554 44.3413 140.554 44.864C140.554 46.096 140.965 46.712 141.786 46.712C142.682 46.712 143.765 45.984 145.034 44.528C146.08 43.296 147.125 41.84 148.17 40.16C149.253 38.4427 150.28 36.688 151.25 34.896C152.258 33.0667 153.136 31.3867 153.882 29.856C154.293 29.0347 155.021 28.624 156.066 28.624H159.146C158.064 29.3707 157.224 30.3413 156.626 31.536C156.066 32.7307 155.432 34.2613 154.722 36.128C153.938 38.1813 153.192 40.3093 152.482 42.512C151.81 44.6773 151.045 46.8613 150.186 49.064C151.418 48.6533 152.8 48.0187 154.33 47.16C155.898 46.3013 157.224 45.0693 158.306 43.464C159.165 42.1947 159.893 40.9813 160.49 39.824C161.125 38.6293 161.573 37.7707 161.834 37.248C161.984 36.8747 162.189 36.688 162.45 36.688C162.712 36.688 162.842 36.856 162.842 37.192C162.842 37.3787 162.786 37.584 162.674 37.808C161.704 39.7493 160.826 41.392 160.042 42.736C159.296 44.0427 158.456 45.1813 157.522 46.152C156.626 47.0853 155.525 47.9067 154.218 48.616C152.912 49.3627 151.25 50.1093 149.234 50.856C148.338 52.4613 147.312 54.1227 146.154 55.84C145.034 57.5947 143.746 59.2187 142.29 60.712C140.872 62.2427 139.285 63.4747 137.53 64.408C135.813 65.3787 133.909 65.864 131.818 65.864ZM130.474 64.744C131.706 64.744 132.976 64.3707 134.282 63.624C135.589 62.8773 136.858 61.9253 138.09 60.768C139.322 59.648 140.442 58.4907 141.45 57.296C142.496 56.1387 143.336 55.112 143.97 54.216C144.157 53.9547 144.362 53.6187 144.586 53.208C144.81 52.7973 145.034 52.4053 145.258 52.032C143.429 52.5173 141.413 53.04 139.21 53.6C137.045 54.1973 135.16 54.8507 133.554 55.56C131.762 56.3067 130.362 57.3707 129.354 58.752C128.309 60.1333 127.786 61.3653 127.786 62.448C127.786 63.12 128.01 63.6613 128.458 64.072C128.869 64.52 129.541 64.744 130.474 64.744ZM204.066 53.376C203.879 53.376 203.711 53.376 203.562 53.376C203.412 53.376 203.263 53.3573 203.114 53.32C201.322 52.984 200.426 51.3787 200.426 48.504C200.426 46.1893 201.004 43.072 202.162 39.152C203.319 35.232 205.074 30.5093 207.426 24.984C208.098 23.416 208.77 21.6613 209.442 19.72C210.114 17.7413 210.674 15.7627 211.122 13.784C211.607 11.8053 211.85 10.0133 211.85 8.408C211.85 7.25067 211.7 6.24266 211.402 5.384C211.103 4.488 210.599 3.83466 209.89 3.424C209.068 2.90133 208.154 2.528 207.146 2.304C206.175 2.04267 205.148 1.912 204.066 1.912C202.124 1.912 200.09 2.26667 197.962 2.976C195.834 3.648 193.724 4.6 191.634 5.832C189.543 7.064 187.564 8.50133 185.698 10.144C183.831 11.7867 182.17 13.5787 180.714 15.52C179.295 17.424 178.212 19.4027 177.466 21.456C176.98 22.8373 176.607 24.144 176.346 25.376C176.122 26.608 176.01 27.7653 176.01 28.848C176.01 31.088 176.458 32.9733 177.354 34.504C178.25 35.9973 179.407 37.1173 180.826 37.864C182.282 38.6107 183.812 38.984 185.418 38.984C186.986 38.984 188.535 38.6107 190.066 37.864C191.634 37.08 193.034 36.0533 194.266 34.784C195.535 33.5147 196.543 32.1147 197.29 30.584C198.036 29.0533 198.41 27.504 198.41 25.936C198.41 24.6667 198.148 23.5653 197.626 22.632C197.103 21.6613 196.226 21.176 194.994 21.176C194.732 21.176 194.452 21.1947 194.154 21.232C193.892 21.2693 193.612 21.344 193.314 21.456C192.94 21.568 192.642 21.624 192.418 21.624C192.231 21.624 192.138 21.568 192.138 21.456C192.138 21.3813 192.212 21.2693 192.362 21.12C192.511 20.9333 192.716 20.784 192.978 20.672C194.06 20.1867 195.068 19.944 196.002 19.944C197.532 19.944 198.727 20.5227 199.586 21.68C200.444 22.8373 200.874 24.2373 200.874 25.88C200.874 27.672 200.351 29.4267 199.306 31.144C198.298 32.8613 196.972 34.4293 195.33 35.848C193.687 37.2293 191.914 38.3493 190.01 39.208C188.106 40.0293 186.276 40.44 184.522 40.44C182.543 40.44 180.658 39.8987 178.866 38.816C177.074 37.7333 175.618 36.2213 174.498 34.28C173.378 32.3013 172.818 30.0053 172.818 27.392C172.818 26.1973 172.967 24.9467 173.266 23.64C173.527 22.3333 173.956 20.9893 174.554 19.608C175.786 16.7707 177.503 14.176 179.706 11.824C181.908 9.472 184.372 7.456 187.098 5.776C189.823 4.05867 192.604 2.752 195.442 1.856C198.279 0.922664 200.986 0.455998 203.562 0.455998C205.839 0.455998 207.874 0.847997 209.666 1.632C211.644 2.49066 213.044 3.76 213.866 5.44C214.687 7.12 215.098 9.00533 215.098 11.096C215.098 13.3733 214.706 15.8 213.922 18.376C213.175 20.9147 212.223 23.3413 211.066 25.656C209.871 28.0827 208.788 30.6213 207.818 33.272C206.847 35.8853 206.026 38.3867 205.354 40.776C204.682 43.128 204.196 45.1627 203.898 46.88C203.823 47.2907 203.767 47.664 203.73 48C203.692 48.3733 203.674 48.7093 203.674 49.008C203.674 50.7627 204.252 51.64 205.41 51.64C206.194 51.64 207.127 51.304 208.21 50.632C209.292 49.9973 210.412 49.1947 211.57 48.224C212.764 47.2533 213.903 46.2453 214.986 45.2C216.068 44.1173 217.002 43.1653 217.786 42.344C218.57 41.4853 219.111 40.888 219.41 40.552C222.546 36.8933 225.01 33.2347 226.802 29.576C228.594 25.88 229.49 22.5573 229.49 19.608C229.49 18.936 229.434 18.264 229.322 17.592C229.172 16.6213 228.967 15.9493 228.706 15.576C228.444 15.2027 228.146 14.9787 227.81 14.904C227.474 14.8293 227.082 14.7547 226.634 14.68C226.148 14.6053 225.775 14.456 225.514 14.232C225.29 14.008 225.178 13.8027 225.178 13.616C225.178 13.2427 225.495 13.056 226.13 13.056C226.204 13.056 226.298 13.0747 226.41 13.112C226.559 13.112 226.708 13.1307 226.858 13.168C227.567 13.3547 228.351 13.7653 229.21 14.4C230.068 15.0347 230.815 15.8933 231.45 16.976C232.084 18.0587 232.402 19.4213 232.402 21.064C232.402 22.5947 232.047 24.2933 231.338 26.16C230.292 28.8853 228.93 31.5733 227.25 34.224C225.57 36.8373 223.703 39.3013 221.65 41.616C219.634 43.8933 217.562 45.928 215.434 47.72C213.306 49.4747 211.252 50.856 209.274 51.864C207.332 52.872 205.596 53.376 204.066 53.376ZM243.404 48.168C242.993 48.2053 242.527 48.112 242.004 47.888C241.481 47.664 241.015 47.2533 240.604 46.656C240.231 46.0587 240.044 45.2187 240.044 44.136C240.044 43.24 240.212 42.1573 240.548 40.888C240.1 41.5973 239.521 42.4747 238.812 43.52C238.103 44.528 237.337 45.424 236.516 46.208C235.807 46.88 235.135 47.3653 234.5 47.664C233.865 47.9627 233.287 48.112 232.764 48.112C231.793 48.112 231.009 47.6827 230.412 46.824C229.815 45.928 229.516 44.7707 229.516 43.352C229.516 41.8587 229.889 40.16 230.636 38.256C231.383 36.352 232.596 34.3733 234.276 32.32C235.359 31.0133 236.665 29.968 238.196 29.184C239.764 28.3627 241.295 27.952 242.788 27.952C243.647 27.952 244.468 28.1013 245.252 28.4C246.036 28.6613 246.727 29.1093 247.324 29.744C247.585 30.0053 247.716 30.304 247.716 30.64C247.716 30.864 247.623 31.0507 247.436 31.2C247.249 31.3493 247.007 31.3867 246.708 31.312C246.297 30.0053 245.42 29.352 244.076 29.352C243.441 29.352 242.713 29.5573 241.892 29.968C240.623 30.64 239.297 31.7413 237.916 33.272C236.572 34.8027 235.396 36.3893 234.388 38.032C234.239 38.256 233.996 38.6853 233.66 39.32C233.361 39.9547 233.063 40.664 232.764 41.448C232.465 42.232 232.26 42.9973 232.148 43.744C232.111 43.968 232.092 44.136 232.092 44.248C232.092 44.3227 232.092 44.4533 232.092 44.64C232.092 45.872 232.559 46.488 233.492 46.488C234.612 46.488 235.881 45.6667 237.3 44.024C238.271 42.8293 239.148 41.5787 239.932 40.272C240.716 38.9653 241.519 37.5653 242.34 36.072C242.9 35.064 243.423 34.224 243.908 33.552C244.393 32.88 245.084 32.544 245.98 32.544C246.391 32.544 246.801 32.6 247.212 32.712C247.623 32.824 248.052 32.8427 248.5 32.768C248.201 33.0667 247.791 33.6267 247.268 34.448C246.783 35.2693 246.26 36.2027 245.7 37.248C245.14 38.2933 244.636 39.3573 244.188 40.44C243.74 41.5227 243.423 42.456 243.236 43.24C243.199 43.464 243.143 43.7813 243.068 44.192C243.031 44.6027 243.012 44.9013 243.012 45.088C243.012 46.1333 243.311 46.656 243.908 46.656C244.505 46.656 245.14 46.3013 245.812 45.592C246.521 44.8827 247.212 44.0053 247.884 42.96C248.556 41.9147 249.172 40.8693 249.732 39.824C250.292 38.7413 250.74 37.864 251.076 37.192C251.225 36.8187 251.449 36.632 251.748 36.632C251.935 36.632 252.028 36.7627 252.028 37.024C252.028 37.136 251.972 37.3413 251.86 37.64C251.412 38.5733 250.871 39.6373 250.236 40.832C249.601 41.9893 248.911 43.128 248.164 44.248C247.417 45.3307 246.633 46.2453 245.812 46.992C245.028 47.7013 244.225 48.0933 243.404 48.168ZM253.795 48.168C252.227 48.168 251.163 47.7573 250.603 46.936C250.043 46.0773 249.763 45.0693 249.763 43.912C249.763 42.7173 249.931 41.4853 250.267 40.216C250.603 38.9467 250.902 37.8827 251.163 37.024C251.761 34.9333 252.507 32.712 253.403 30.36C254.337 27.9707 255.345 25.6373 256.427 23.36C257.547 21.0453 258.649 18.9733 259.731 17.144C260.59 15.688 261.505 14.6053 262.475 13.896C263.483 13.1493 264.361 12.776 265.107 12.776C265.705 12.776 266.171 13 266.507 13.448C266.881 13.8587 267.067 14.4933 267.067 15.352C267.067 15.9493 266.955 16.6587 266.731 17.48C266.545 18.3013 266.209 19.2347 265.723 20.28C264.417 23.192 262.849 26.104 261.019 29.016C259.227 31.928 256.95 34.6533 254.187 37.192C254.038 37.6773 253.833 38.256 253.571 38.928C253.347 39.5627 253.142 40.216 252.955 40.888C252.731 41.896 252.619 42.7547 252.619 43.464C252.619 44.6213 252.843 45.4987 253.291 46.096C253.777 46.656 254.355 46.936 255.027 46.936C255.625 46.936 256.259 46.7307 256.931 46.32C257.603 45.872 258.238 45.2373 258.835 44.416C259.731 43.1093 260.534 41.784 261.243 40.44C261.99 39.0587 262.55 37.9947 262.923 37.248C263.147 36.8373 263.39 36.632 263.651 36.632C263.838 36.632 263.931 36.744 263.931 36.968C263.931 37.1547 263.875 37.36 263.763 37.584C263.427 38.3307 262.979 39.3013 262.419 40.496C261.897 41.6533 261.225 42.8293 260.403 44.024C259.619 45.1813 258.667 46.1707 257.547 46.992C256.465 47.776 255.214 48.168 253.795 48.168ZM254.635 35.4C255.979 34.0187 257.286 32.432 258.555 30.64C259.825 28.8107 261.001 26.9253 262.083 24.984C263.203 23.0053 264.137 21.1387 264.883 19.384C265.145 18.824 265.35 18.208 265.499 17.536C265.686 16.864 265.779 16.304 265.779 15.856C265.779 15.3333 265.649 15.072 265.387 15.072C265.238 15.072 265.014 15.2213 264.715 15.52C264.417 15.7813 264.025 16.248 263.539 16.92C262.83 17.8533 262.046 19.1227 261.187 20.728C260.366 22.3333 259.526 24.0507 258.667 25.88C257.809 27.7093 257.025 29.4827 256.315 31.2C255.606 32.88 255.046 34.28 254.635 35.4ZM266.893 48.224C265.512 48.224 264.261 47.776 263.141 46.88C262.059 45.984 261.517 44.6213 261.517 42.792C261.517 41.112 261.928 39.32 262.749 37.416C263.571 35.4747 264.616 33.776 265.885 32.32C266.968 31.0507 268.181 30.0053 269.525 29.184C270.869 28.3627 272.139 27.952 273.333 27.952C274.155 27.952 274.864 28.176 275.461 28.624C276.096 29.1093 276.413 29.8 276.413 30.696C276.413 31.6293 276.059 32.656 275.349 33.776C274.64 34.896 273.632 35.9413 272.325 36.912C271.765 37.3227 271.056 37.7147 270.197 38.088C269.339 38.4613 268.48 38.7787 267.621 39.04C266.763 39.264 266.053 39.376 265.493 39.376C265.307 39.824 265.12 40.4213 264.933 41.168C264.784 41.9147 264.709 42.68 264.709 43.464C264.709 44.3973 264.896 45.2373 265.269 45.984C265.643 46.7307 266.333 47.104 267.341 47.104C268.573 47.104 269.693 46.7493 270.701 46.04C271.709 45.3307 272.605 44.4533 273.389 43.408C274.173 42.3253 274.827 41.2427 275.349 40.16C275.909 39.0773 276.357 38.1627 276.693 37.416C276.917 36.8933 277.216 36.632 277.589 36.632C277.776 36.632 277.869 36.7253 277.869 36.912C277.869 37.0613 277.813 37.248 277.701 37.472C277.179 38.592 276.619 39.7867 276.021 41.056C275.424 42.288 274.715 43.464 273.893 44.584C273.072 45.6667 272.083 46.544 270.925 47.216C269.805 47.888 268.461 48.224 266.893 48.224ZM265.885 38.368C266.408 38.368 267.285 38.1813 268.517 37.808C269.749 37.3973 270.869 36.7627 271.877 35.904C272.848 35.0453 273.595 34.112 274.117 33.104C274.64 32.0587 274.901 31.1813 274.901 30.472C274.901 29.6507 274.603 29.24 274.005 29.24C273.557 29.24 272.941 29.5387 272.157 30.136C271.373 30.7333 270.403 31.7413 269.245 33.16C268.536 34.056 267.864 35.0267 267.229 36.072C266.595 37.1173 266.147 37.8827 265.885 38.368ZM271.488 48.448C272.832 45.7227 274.12 43.0347 275.352 40.384C276.621 37.696 277.909 35.1387 279.216 32.712C279.963 31.368 280.579 30.4347 281.064 29.912C281.587 29.352 282.277 29.072 283.136 29.072C283.435 29.072 283.752 29.128 284.088 29.24C284.424 29.3147 284.76 29.352 285.096 29.352C285.32 29.352 285.488 29.3333 285.6 29.296C285.077 29.5947 284.405 30.3413 283.584 31.536C282.763 32.6933 281.923 34.0373 281.064 35.568C280.205 37.0987 279.44 38.536 278.768 39.88C279.477 39.0213 280.205 38.1627 280.952 37.304C281.736 36.4453 282.595 35.624 283.528 34.84C284.424 34.056 285.488 33.2533 286.72 32.432C287.989 31.5733 289.221 30.864 290.416 30.304C291.611 29.744 292.563 29.464 293.272 29.464C293.533 29.464 293.72 29.4827 293.832 29.52C293.832 29.52 293.627 29.8933 293.216 30.64C292.805 31.3493 292.283 32.3013 291.648 33.496C291.051 34.6533 290.435 35.904 289.8 37.248C289.165 38.5547 288.587 39.824 288.064 41.056C287.579 42.2507 287.261 43.2587 287.112 44.08C287 44.5653 286.944 45.0133 286.944 45.424C286.944 46.0213 287.056 46.4133 287.28 46.6C287.504 46.7867 287.747 46.88 288.008 46.88C288.717 46.88 289.464 46.5067 290.248 45.76C291.032 44.976 291.779 44.024 292.488 42.904C293.235 41.784 293.888 40.7013 294.448 39.656C295.045 38.5733 295.475 37.752 295.736 37.192C295.885 36.8933 295.997 36.7253 296.072 36.688C296.147 36.6133 296.259 36.576 296.408 36.576C296.632 36.576 296.744 36.7253 296.744 37.024C296.744 37.2107 296.688 37.416 296.576 37.64C296.128 38.4987 295.587 39.5253 294.952 40.72C294.355 41.9147 293.664 43.0907 292.88 44.248C292.096 45.368 291.237 46.32 290.304 47.104C289.371 47.8507 288.363 48.224 287.28 48.224C286.533 48.224 285.749 47.9627 284.928 47.44C284.144 46.9173 283.752 45.9467 283.752 44.528C283.752 44.1173 283.789 43.688 283.864 43.24C283.939 42.7547 284.069 42.232 284.256 41.672C284.555 40.9253 284.909 40.1227 285.32 39.264C285.731 38.4053 286.403 37.2293 287.336 35.736C287.597 35.3253 287.747 35.008 287.784 34.784C287.859 34.56 287.896 34.3733 287.896 34.224C287.896 33.776 287.691 33.552 287.28 33.552C286.944 33.552 286.44 33.7387 285.768 34.112C285.133 34.4853 284.331 35.1387 283.36 36.072C282.427 36.968 281.307 38.2373 280 39.88C278.731 41.5227 277.256 43.9493 275.576 47.16C275.315 47.6453 275.016 47.9067 274.68 47.944C274.381 47.9813 273.952 48.0187 273.392 48.056C273.019 48.0933 272.664 48.112 272.328 48.112C271.992 48.1493 271.712 48.2613 271.488 48.448ZM298.364 48C297.319 48 296.386 47.6453 295.564 46.936C294.743 46.1893 294.332 45.032 294.332 43.464C294.332 42.232 294.556 40.72 295.004 38.928C295.49 37.0987 296.068 35.2133 296.74 33.272C297.45 31.2933 298.14 29.5013 298.812 27.896H295.844C295.583 27.896 295.452 27.7093 295.452 27.336C295.452 27.1493 295.49 26.9813 295.564 26.832C295.676 26.6827 295.826 26.608 296.012 26.608H299.372C300.007 25.1893 300.679 23.808 301.388 22.464C302.098 21.12 302.788 19.8507 303.46 18.656C304.319 17.1627 305.234 16.0427 306.204 15.296C307.175 14.5493 308.015 14.176 308.724 14.176C309.284 14.176 309.751 14.4 310.124 14.848C310.498 15.2587 310.684 15.8933 310.684 16.752C310.684 17.2747 310.572 18.0027 310.348 18.936C310.124 19.832 309.77 20.784 309.284 21.792C309.023 22.3147 308.65 23.0613 308.164 24.032C307.716 25.0027 307.268 25.8613 306.82 26.608H309.508C309.77 26.608 309.9 26.7947 309.9 27.168C309.9 27.3173 309.863 27.4853 309.788 27.672C309.714 27.8213 309.602 27.896 309.452 27.896H306.148C305.215 29.5013 304.151 31.0693 302.956 32.6C301.762 34.1307 300.343 35.6613 298.7 37.192C298.588 37.528 298.439 38.0133 298.252 38.648C298.103 39.2827 297.954 39.936 297.804 40.608C297.692 41.2427 297.58 41.784 297.468 42.232C297.394 42.68 297.356 42.904 297.356 42.904C297.244 43.3893 297.188 43.8373 297.188 44.248C297.188 45.032 297.375 45.6107 297.748 45.984C298.122 46.32 298.551 46.488 299.036 46.488C299.335 46.488 299.634 46.4507 299.932 46.376C300.231 46.264 300.567 46.0773 300.94 45.816C302.247 44.8827 303.386 43.6133 304.356 42.008C305.364 40.4027 306.242 38.8533 306.988 37.36C307.212 36.912 307.436 36.688 307.66 36.688C307.81 36.688 307.884 36.8 307.884 37.024C307.884 37.136 307.828 37.3413 307.716 37.64C306.895 39.3573 306.204 40.7387 305.644 41.784C305.084 42.8293 304.543 43.7067 304.02 44.416C303.498 45.088 302.882 45.76 302.172 46.432C301.65 46.9547 301.052 47.3467 300.38 47.608C299.708 47.8693 299.036 48 298.364 48ZM302.788 26.608H305.644C306.167 25.6373 306.652 24.6853 307.1 23.752C307.586 22.8187 308.015 21.8853 308.388 20.952C308.65 20.3547 308.874 19.6827 309.06 18.936C309.247 18.1893 309.34 17.6107 309.34 17.2C309.34 16.64 309.21 16.36 308.948 16.36C308.762 16.36 308.482 16.528 308.108 16.864C307.772 17.1627 307.343 17.6853 306.82 18.432C306.148 19.3653 305.476 20.5787 304.804 22.072C304.17 23.528 303.498 25.04 302.788 26.608ZM299.148 35.4C300.231 34.28 301.239 33.0853 302.172 31.816C303.143 30.5467 304.039 29.24 304.86 27.896H302.228C301.631 29.2773 301.071 30.6213 300.548 31.928C300.026 33.2347 299.559 34.392 299.148 35.4ZM313.158 25.264C312.598 25.264 312.131 25.0773 311.758 24.704C311.422 24.2933 311.254 23.808 311.254 23.248C311.254 22.5387 311.534 21.9227 312.094 21.4C312.654 20.8773 313.27 20.616 313.942 20.616C314.539 20.616 315.025 20.8027 315.398 21.176C315.771 21.5493 315.958 21.9973 315.958 22.52C315.958 23.2293 315.678 23.864 315.118 24.424C314.558 24.984 313.905 25.264 313.158 25.264ZM308.622 48C307.241 48 306.27 47.608 305.71 46.824C305.15 46.0027 304.87 45.0693 304.87 44.024C304.87 43.464 304.926 42.904 305.038 42.344C305.187 41.7467 305.355 41.2053 305.542 40.72L309.294 31.144C309.406 30.8453 309.462 30.584 309.462 30.36C309.462 29.9867 309.369 29.6693 309.182 29.408C308.995 29.1093 308.865 28.904 308.79 28.792L311.87 28.68C312.43 28.6427 312.822 28.7173 313.046 28.904C313.307 29.0533 313.438 29.24 313.438 29.464C313.438 29.688 313.307 30.0987 313.046 30.696L308.398 41.616C308.398 41.616 308.286 41.8587 308.062 42.344C307.875 42.792 307.763 43.0907 307.726 43.24C307.614 43.8 307.539 44.1547 307.502 44.304C307.465 44.4533 307.446 44.5467 307.446 44.584C307.446 44.6213 307.446 44.7707 307.446 45.032C307.446 45.5173 307.558 45.928 307.782 46.264C308.043 46.6 308.473 46.768 309.07 46.768C309.443 46.768 309.873 46.656 310.358 46.432C310.843 46.208 311.198 45.984 311.422 45.76C312.355 44.7893 313.27 43.52 314.166 41.952C315.099 40.3467 315.958 38.76 316.742 37.192C316.891 36.8187 317.078 36.632 317.302 36.632C317.489 36.632 317.582 36.7627 317.582 37.024C317.582 37.1733 317.526 37.3973 317.414 37.696C317.041 38.48 316.574 39.4507 316.014 40.608C315.454 41.7653 314.782 42.9227 313.998 44.08C313.251 45.2 312.43 46.1333 311.534 46.88C310.638 47.6267 309.667 48 308.622 48ZM311.41 48.448C312.754 45.7227 314.042 43.0347 315.274 40.384C316.543 37.696 317.831 35.1387 319.138 32.712C319.884 31.368 320.5 30.4347 320.986 29.912C321.508 29.352 322.199 29.072 323.058 29.072C323.356 29.072 323.674 29.128 324.01 29.24C324.346 29.3147 324.682 29.352 325.018 29.352C325.242 29.352 325.41 29.3333 325.522 29.296C324.999 29.5947 324.327 30.3413 323.506 31.536C322.684 32.6933 321.844 34.0373 320.986 35.568C320.127 37.0987 319.362 38.536 318.69 39.88C319.399 39.0213 320.127 38.1627 320.874 37.304C321.658 36.4453 322.516 35.624 323.45 34.84C324.346 34.056 325.41 33.2533 326.642 32.432C327.911 31.5733 329.143 30.864 330.338 30.304C331.532 29.744 332.484 29.464 333.194 29.464C333.455 29.464 333.642 29.4827 333.754 29.52C333.754 29.52 333.548 29.8933 333.138 30.64C332.727 31.3493 332.204 32.3013 331.57 33.496C330.972 34.6533 330.356 35.904 329.722 37.248C329.087 38.5547 328.508 39.824 327.986 41.056C327.5 42.2507 327.183 43.2587 327.034 44.08C326.922 44.5653 326.866 45.0133 326.866 45.424C326.866 46.0213 326.978 46.4133 327.202 46.6C327.426 46.7867 327.668 46.88 327.93 46.88C328.639 46.88 329.386 46.5067 330.17 45.76C330.954 44.976 331.7 44.024 332.41 42.904C333.156 41.784 333.81 40.7013 334.37 39.656C334.967 38.5733 335.396 37.752 335.658 37.192C335.807 36.8933 335.919 36.7253 335.994 36.688C336.068 36.6133 336.18 36.576 336.33 36.576C336.554 36.576 336.666 36.7253 336.666 37.024C336.666 37.2107 336.61 37.416 336.498 37.64C336.05 38.4987 335.508 39.5253 334.874 40.72C334.276 41.9147 333.586 43.0907 332.802 44.248C332.018 45.368 331.159 46.32 330.226 47.104C329.292 47.8507 328.284 48.224 327.202 48.224C326.455 48.224 325.671 47.9627 324.85 47.44C324.066 46.9173 323.674 45.9467 323.674 44.528C323.674 44.1173 323.711 43.688 323.786 43.24C323.86 42.7547 323.991 42.232 324.178 41.672C324.476 40.9253 324.831 40.1227 325.242 39.264C325.652 38.4053 326.324 37.2293 327.258 35.736C327.519 35.3253 327.668 35.008 327.706 34.784C327.78 34.56 327.818 34.3733 327.818 34.224C327.818 33.776 327.612 33.552 327.202 33.552C326.866 33.552 326.362 33.7387 325.69 34.112C325.055 34.4853 324.252 35.1387 323.282 36.072C322.348 36.968 321.228 38.2373 319.922 39.88C318.652 41.5227 317.178 43.9493 315.498 47.16C315.236 47.6453 314.938 47.9067 314.602 47.944C314.303 47.9813 313.874 48.0187 313.314 48.056C312.94 48.0933 312.586 48.112 312.25 48.112C311.914 48.1493 311.634 48.2613 311.41 48.448ZM339.518 48.224C338.137 48.224 336.886 47.776 335.766 46.88C334.684 45.984 334.142 44.6213 334.142 42.792C334.142 41.112 334.553 39.32 335.374 37.416C336.196 35.4747 337.241 33.776 338.51 32.32C339.593 31.0507 340.806 30.0053 342.15 29.184C343.494 28.3627 344.764 27.952 345.958 27.952C346.78 27.952 347.489 28.176 348.086 28.624C348.721 29.1093 349.038 29.8 349.038 30.696C349.038 31.6293 348.684 32.656 347.974 33.776C347.265 34.896 346.257 35.9413 344.95 36.912C344.39 37.3227 343.681 37.7147 342.822 38.088C341.964 38.4613 341.105 38.7787 340.246 39.04C339.388 39.264 338.678 39.376 338.118 39.376C337.932 39.824 337.745 40.4213 337.558 41.168C337.409 41.9147 337.334 42.68 337.334 43.464C337.334 44.3973 337.521 45.2373 337.894 45.984C338.268 46.7307 338.958 47.104 339.966 47.104C341.198 47.104 342.318 46.7493 343.326 46.04C344.334 45.3307 345.23 44.4533 346.014 43.408C346.798 42.3253 347.452 41.2427 347.974 40.16C348.534 39.0773 348.982 38.1627 349.318 37.416C349.542 36.8933 349.841 36.632 350.214 36.632C350.401 36.632 350.494 36.7253 350.494 36.912C350.494 37.0613 350.438 37.248 350.326 37.472C349.804 38.592 349.244 39.7867 348.646 41.056C348.049 42.288 347.34 43.464 346.518 44.584C345.697 45.6667 344.708 46.544 343.55 47.216C342.43 47.888 341.086 48.224 339.518 48.224ZM338.51 38.368C339.033 38.368 339.91 38.1813 341.142 37.808C342.374 37.3973 343.494 36.7627 344.502 35.904C345.473 35.0453 346.22 34.112 346.742 33.104C347.265 32.0587 347.526 31.1813 347.526 30.472C347.526 29.6507 347.228 29.24 346.63 29.24C346.182 29.24 345.566 29.5387 344.782 30.136C343.998 30.7333 343.028 31.7413 341.87 33.16C341.161 34.056 340.489 35.0267 339.854 36.072C339.22 37.1173 338.772 37.8827 338.51 38.368ZM350.721 48.224C348.892 48.224 347.585 47.7573 346.801 46.824C346.054 45.8533 345.681 44.8453 345.681 43.8C345.681 42.9413 345.886 42.1573 346.297 41.448C346.745 40.7387 347.268 40.3653 347.865 40.328C348.612 38.872 349.414 37.2853 350.273 35.568C351.169 33.8507 351.99 32.1893 352.737 30.584C353.26 29.5013 353.913 28.456 354.697 27.448C355.518 26.44 356.414 25.8613 357.385 25.712H357.945C358.244 25.712 358.505 25.7307 358.729 25.768C358.99 25.8053 359.252 25.88 359.513 25.992C359.924 26.1787 360.129 26.4587 360.129 26.832C360.129 27.056 359.998 27.168 359.737 27.168C359.625 27.168 359.476 27.112 359.289 27C358.841 26.8133 358.449 26.72 358.113 26.72C357.889 26.72 357.684 26.776 357.497 26.888C356.788 27.2613 356.284 27.784 355.985 28.456C355.724 29.128 355.593 29.8373 355.593 30.584C355.593 31.1813 355.649 31.7973 355.761 32.432C355.91 33.0293 356.078 33.5707 356.265 34.056C356.676 35.1013 357.105 36.128 357.553 37.136C358.038 38.144 358.281 39.2267 358.281 40.384C358.281 41.504 357.908 42.6987 357.161 43.968C356.414 45.2 355.462 46.1893 354.305 46.936L354.697 46.992C354.884 47.0293 355.014 47.048 355.089 47.048C355.164 47.048 355.22 47.048 355.257 47.048C356.116 47.048 356.918 46.8053 357.665 46.32C358.449 45.7973 359.14 45.1627 359.737 44.416C360.334 43.6693 361.006 42.624 361.753 41.28C362.537 39.936 363.284 38.5173 363.993 37.024C364.105 36.8373 364.236 36.744 364.385 36.744C364.572 36.744 364.702 36.8187 364.777 36.968C364.889 37.08 364.908 37.2293 364.833 37.416C364.348 38.4613 363.788 39.6 363.153 40.832C362.556 42.0267 361.865 43.184 361.081 44.304C360.297 45.3867 359.382 46.2827 358.337 46.992C357.329 47.664 356.19 48 354.921 48C354.622 48 354.305 47.9813 353.969 47.944C353.633 47.9067 353.297 47.832 352.961 47.72C352.588 47.8693 352.196 47.9813 351.785 48.056C351.412 48.168 351.057 48.224 350.721 48.224ZM352.401 46.544C353.036 46.0213 353.596 45.256 354.081 44.248C354.604 43.24 354.865 41.9147 354.865 40.272C354.865 38.816 354.716 37.2667 354.417 35.624C354.118 33.9813 353.969 32.5253 353.969 31.256C353.969 30.9947 353.969 30.7707 353.969 30.584C354.006 30.36 354.044 30.1547 354.081 29.968C353.596 30.976 353.036 32.152 352.401 33.496C351.766 34.8027 351.132 36.072 350.497 37.304C349.862 38.536 349.321 39.5813 348.873 40.44C348.873 40.44 348.966 40.4587 349.153 40.496C349.377 40.496 349.582 40.6267 349.769 40.888C349.956 41.112 350.03 41.5787 349.993 42.288C349.956 43.2213 350.161 44.0987 350.609 44.92C351.094 45.704 351.692 46.2453 352.401 46.544ZM350.273 47.328C350.497 47.328 350.702 47.3093 350.889 47.272C351.076 47.1973 351.244 47.1413 351.393 47.104C350.833 46.6933 350.329 46.152 349.881 45.48C349.47 44.7707 349.228 43.8747 349.153 42.792C348.481 43.5013 348.145 44.2667 348.145 45.088C348.145 45.6853 348.332 46.208 348.705 46.656C349.078 47.104 349.601 47.328 350.273 47.328ZM384.915 50.184C384.056 50.184 383.179 50.128 382.283 50.016C379.931 49.7173 378.195 49.0267 377.075 47.944C375.992 46.824 375.451 45.6293 375.451 44.36C375.451 42.9787 376.048 41.728 377.243 40.608C378.475 39.488 380.211 38.928 382.451 38.928C383.944 38.928 385.568 39.2267 387.323 39.824C388.069 40.048 388.984 40.44 390.067 41C391.187 41.5227 392.288 42.064 393.371 42.624C394.453 43.184 395.293 43.632 395.891 43.968C397.533 42.3627 399.045 40.5147 400.427 38.424C401.845 36.296 403.189 34.0373 404.459 31.648C405.728 29.2213 407.016 26.776 408.323 24.312C409.629 21.848 410.992 19.4587 412.411 17.144C413.867 14.792 415.472 12.6453 417.227 10.704C415.285 9.50933 413.139 8.59467 410.787 7.96C408.472 7.288 406.083 6.952 403.619 6.952C402.685 6.952 401.733 7.008 400.763 7.12C399.829 7.232 398.877 7.38133 397.907 7.568C394.435 8.31466 391.504 9.50933 389.115 11.152C386.725 12.7573 384.915 14.5307 383.683 16.472C382.488 18.376 381.891 20.1867 381.891 21.904C381.891 23.1733 382.227 24.2933 382.899 25.264C383.571 26.2347 384.597 26.9253 385.979 27.336C386.987 27.6347 387.864 27.784 388.611 27.784C389.843 27.784 390.907 27.5413 391.803 27.056C392.736 26.5333 393.52 25.8987 394.155 25.152C394.789 24.4053 395.256 23.6773 395.555 22.968C395.891 22.2587 396.077 21.68 396.115 21.232C396.115 20.9707 396.283 20.84 396.619 20.84C397.141 20.84 397.347 21.1573 397.235 21.792C397.048 23.2853 396.488 24.592 395.555 25.712C394.621 26.7947 393.501 27.6533 392.195 28.288C390.888 28.8853 389.544 29.184 388.163 29.184C387.267 29.184 386.333 29.0347 385.363 28.736C383.645 28.1387 382.189 27.112 380.995 25.656C379.837 24.1627 379.259 22.408 379.259 20.392C379.259 18.4133 379.912 16.4347 381.219 14.456C382.563 12.44 384.691 10.6293 387.603 9.024C390.515 7.41867 394.323 6.28 399.027 5.608C400.595 5.384 402.181 5.272 403.787 5.272C406.437 5.272 409.032 5.58933 411.571 6.224C414.147 6.85866 416.573 7.77333 418.851 8.968L420.251 7.344C420.587 7.04533 421.053 6.672 421.651 6.224C422.285 5.776 422.92 5.34667 423.555 4.936C424.189 4.52533 424.656 4.264 424.955 4.152C425.44 3.96533 425.832 3.872 426.131 3.872C426.355 3.872 426.467 3.928 426.467 4.04C426.467 4.30133 426.168 4.61866 425.571 4.992C425.197 5.25333 424.861 5.552 424.563 5.888C424.264 6.18667 424.04 6.42933 423.891 6.616C423.331 7.4 422.883 8.03466 422.547 8.52C422.248 9.00533 421.837 9.64 421.315 10.424C424.749 12.7013 427.549 15.6507 429.715 19.272C431.88 22.856 432.963 26.9627 432.963 31.592C432.963 32.5627 432.907 33.552 432.795 34.56C432.571 36.9493 431.917 39.1147 430.835 41.056C429.752 42.9973 428.333 44.64 426.579 45.984C424.861 47.328 422.939 48.3547 420.811 49.064C418.72 49.8107 416.517 50.184 414.203 50.184C413.344 50.184 412.485 50.128 411.627 50.016C407.968 49.568 404.944 48.9707 402.555 48.224C400.203 47.5147 398.131 46.768 396.339 45.984C392.941 48.784 389.133 50.184 384.915 50.184ZM413.251 48.504C416.237 48.504 418.869 47.8693 421.147 46.6C423.461 45.2933 425.328 43.5947 426.747 41.504C428.165 39.4133 429.005 37.1547 429.267 34.728C429.379 33.832 429.435 32.936 429.435 32.04C429.435 27.9707 428.557 24.2747 426.803 20.952C425.085 17.592 422.808 14.7733 419.971 12.496C418.328 15.072 416.629 17.7973 414.875 20.672C413.157 23.5467 411.421 26.4027 409.667 29.24C407.912 32.04 406.195 34.6347 404.515 37.024C402.872 39.4133 401.323 41.392 399.867 42.96C399.605 43.184 399.269 43.52 398.859 43.968C398.485 44.3787 398.093 44.7147 397.683 44.976C399.437 45.76 401.435 46.4693 403.675 47.104C405.915 47.7387 408.547 48.1867 411.571 48.448C411.907 48.4853 412.187 48.504 412.411 48.504C412.672 48.504 412.952 48.504 413.251 48.504ZM383.683 48.448C385.736 48.56 387.659 48.3173 389.451 47.72C391.243 47.0853 392.904 46.208 394.435 45.088C393.091 44.4533 391.728 43.8 390.347 43.128C388.965 42.4187 387.509 41.784 385.979 41.224C384.971 40.888 384.075 40.72 383.291 40.72C381.909 40.72 380.864 41.112 380.155 41.896C379.445 42.6427 379.091 43.4827 379.091 44.416C379.091 45.424 379.483 46.3387 380.267 47.16C381.051 47.944 382.189 48.3733 383.683 48.448ZM447.552 48.168C447.142 48.2053 446.675 48.112 446.152 47.888C445.63 47.664 445.163 47.2533 444.752 46.656C444.379 46.0587 444.192 45.2187 444.192 44.136C444.192 43.24 444.36 42.1573 444.696 40.888C444.248 41.5973 443.67 42.4747 442.96 43.52C442.251 44.528 441.486 45.424 440.664 46.208C439.955 46.88 439.283 47.3653 438.648 47.664C438.014 47.9627 437.435 48.112 436.912 48.112C435.942 48.112 435.158 47.6827 434.56 46.824C433.963 45.928 433.664 44.7707 433.664 43.352C433.664 41.8587 434.038 40.16 434.784 38.256C435.531 36.352 436.744 34.3733 438.424 32.32C439.507 31.0133 440.814 29.968 442.344 29.184C443.912 28.3627 445.443 27.952 446.936 27.952C447.795 27.952 448.616 28.1013 449.4 28.4C450.184 28.6613 450.875 29.1093 451.472 29.744C451.734 30.0053 451.864 30.304 451.864 30.64C451.864 30.864 451.771 31.0507 451.584 31.2C451.398 31.3493 451.155 31.3867 450.856 31.312C450.446 30.0053 449.568 29.352 448.224 29.352C447.59 29.352 446.862 29.5573 446.04 29.968C444.771 30.64 443.446 31.7413 442.064 33.272C440.72 34.8027 439.544 36.3893 438.536 38.032C438.387 38.256 438.144 38.6853 437.808 39.32C437.51 39.9547 437.211 40.664 436.912 41.448C436.614 42.232 436.408 42.9973 436.296 43.744C436.259 43.968 436.24 44.136 436.24 44.248C436.24 44.3227 436.24 44.4533 436.24 44.64C436.24 45.872 436.707 46.488 437.64 46.488C438.76 46.488 440.03 45.6667 441.448 44.024C442.419 42.8293 443.296 41.5787 444.08 40.272C444.864 38.9653 445.667 37.5653 446.488 36.072C447.048 35.064 447.571 34.224 448.056 33.552C448.542 32.88 449.232 32.544 450.128 32.544C450.539 32.544 450.95 32.6 451.36 32.712C451.771 32.824 452.2 32.8427 452.648 32.768C452.35 33.0667 451.939 33.6267 451.416 34.448C450.931 35.2693 450.408 36.2027 449.848 37.248C449.288 38.2933 448.784 39.3573 448.336 40.44C447.888 41.5227 447.571 42.456 447.384 43.24C447.347 43.464 447.291 43.7813 447.216 44.192C447.179 44.6027 447.16 44.9013 447.16 45.088C447.16 46.1333 447.459 46.656 448.056 46.656C448.654 46.656 449.288 46.3013 449.96 45.592C450.67 44.8827 451.36 44.0053 452.032 42.96C452.704 41.9147 453.32 40.8693 453.88 39.824C454.44 38.7413 454.888 37.864 455.224 37.192C455.374 36.8187 455.598 36.632 455.896 36.632C456.083 36.632 456.176 36.7627 456.176 37.024C456.176 37.136 456.12 37.3413 456.008 37.64C455.56 38.5733 455.019 39.6373 454.384 40.832C453.75 41.9893 453.059 43.128 452.312 44.248C451.566 45.3307 450.782 46.2453 449.96 46.992C449.176 47.7013 448.374 48.0933 447.552 48.168ZM447.584 65.864C445.642 65.864 444.261 65.472 443.44 64.688C442.618 63.9413 442.208 63.0453 442.208 62C442.208 61.44 442.282 60.9547 442.432 60.544C442.581 60.1333 442.805 59.6107 443.104 58.976C443.626 57.8933 444.354 56.96 445.288 56.176C446.221 55.392 447.229 54.7573 448.312 54.272C450.253 53.376 452.456 52.648 454.92 52.088C457.421 51.528 459.81 50.912 462.088 50.24C462.797 49.008 463.45 47.608 464.048 46.04C464.645 44.4347 465.186 42.8853 465.672 41.392C466.157 39.8613 466.549 38.6107 466.848 37.64C466.4 38.4613 465.821 39.4693 465.112 40.664C464.44 41.8213 463.674 42.96 462.816 44.08C461.957 45.2 461.024 46.1333 460.016 46.88C459.045 47.6267 458.018 48 456.936 48C456.525 48 456.021 47.9067 455.424 47.72C454.864 47.5333 454.36 47.1973 453.912 46.712C453.501 46.1893 453.296 45.424 453.296 44.416C453.296 43.4453 453.52 42.512 453.968 41.616C454.453 40.6827 454.901 39.7867 455.312 38.928C455.2 38.928 455.069 38.8907 454.92 38.816C454.808 38.7413 454.752 38.6293 454.752 38.48C454.752 38.3307 454.789 38.1813 454.864 38.032C455.013 37.7333 455.181 37.416 455.368 37.08C455.554 36.744 455.722 36.3893 455.872 36.016C456.432 34.8587 456.992 33.7573 457.552 32.712C458.112 31.6293 458.597 30.6773 459.008 29.856C459.418 29.0347 460.128 28.624 461.136 28.624H464.608C464.346 28.848 464.01 29.1093 463.6 29.408C463.226 29.6693 462.872 30.08 462.536 30.64C461.528 32.3573 460.65 34.0187 459.904 35.624C459.157 37.192 458.354 38.872 457.496 40.664C457.085 41.5227 456.786 42.3067 456.6 43.016C456.413 43.7253 456.32 44.3413 456.32 44.864C456.32 46.096 456.73 46.712 457.552 46.712C458.448 46.712 459.53 45.984 460.8 44.528C461.845 43.296 462.89 41.84 463.936 40.16C465.018 38.4427 466.045 36.688 467.016 34.896C468.024 33.0667 468.901 31.3867 469.648 29.856C470.058 29.0347 470.786 28.624 471.832 28.624H474.912C473.829 29.3707 472.989 30.3413 472.392 31.536C471.832 32.7307 471.197 34.2613 470.488 36.128C469.704 38.1813 468.957 40.3093 468.248 42.512C467.576 44.6773 466.81 46.8613 465.952 49.064C467.184 48.6533 468.565 48.0187 470.096 47.16C471.664 46.3013 472.989 45.0693 474.072 43.464C474.93 42.1947 475.658 40.9813 476.256 39.824C476.89 38.6293 477.338 37.7707 477.6 37.248C477.749 36.8747 477.954 36.688 478.216 36.688C478.477 36.688 478.608 36.856 478.608 37.192C478.608 37.3787 478.552 37.584 478.44 37.808C477.469 39.7493 476.592 41.392 475.808 42.736C475.061 44.0427 474.221 45.1813 473.288 46.152C472.392 47.0853 471.29 47.9067 469.984 48.616C468.677 49.3627 467.016 50.1093 465 50.856C464.104 52.4613 463.077 54.1227 461.92 55.84C460.8 57.5947 459.512 59.2187 458.056 60.712C456.637 62.2427 455.05 63.4747 453.296 64.408C451.578 65.3787 449.674 65.864 447.584 65.864ZM446.24 64.744C447.472 64.744 448.741 64.3707 450.048 63.624C451.354 62.8773 452.624 61.9253 453.856 60.768C455.088 59.648 456.208 58.4907 457.216 57.296C458.261 56.1387 459.101 55.112 459.736 54.216C459.922 53.9547 460.128 53.6187 460.352 53.208C460.576 52.7973 460.8 52.4053 461.024 52.032C459.194 52.5173 457.178 53.04 454.976 53.6C452.81 54.1973 450.925 54.8507 449.32 55.56C447.528 56.3067 446.128 57.3707 445.12 58.752C444.074 60.1333 443.552 61.3653 443.552 62.448C443.552 63.12 443.776 63.6613 444.224 64.072C444.634 64.52 445.306 64.744 446.24 64.744Z" fill="#1E1E1E"/>
</svg>
