<svg width="30" height="26" viewBox="0 0 30 26" fill="none" xmlns="http://www.w3.org/2000/svg">
<path fill-rule="evenodd" clip-rule="evenodd" d="M14.7649 25.8402C14.7418 25.8021 14.7541 25.752 14.792 25.7289C14.977 25.6174 15.1606 25.5035 15.3435 25.389C15.2948 25.3653 15.2468 25.341 15.1994 25.3179C15.1027 25.2714 15.0062 25.2248 14.9095 25.1785C14.8932 25.1844 14.8771 25.1905 14.8612 25.1967C14.8204 25.211 14.7746 25.1905 14.76 25.1497C14.755 25.1351 14.7541 25.1196 14.7573 25.1057C14.5588 25.0108 14.3597 24.9163 14.1614 24.8204C14.0742 24.7787 13.9872 24.7362 13.8937 24.69C13.2106 24.3842 12.5393 24.0215 11.8974 23.6319C11.21 23.2152 10.5419 22.7664 9.89989 22.2824C9.67832 22.1159 9.45463 21.9485 9.23814 21.7741C8.29407 21.1555 7.40695 20.4844 6.55536 19.7325C6.18523 19.4056 5.82079 19.0568 5.4822 18.6973C5.24391 18.4444 5.01938 18.1883 4.79482 17.9234C4.77746 17.9029 4.78 17.8713 4.80053 17.854C4.82127 17.8364 4.8528 17.839 4.87016 17.8595C5.02993 18.0485 5.18971 18.2322 5.35562 18.4159C5.42715 18.495 5.5027 18.5704 5.57529 18.6489C5.73464 18.8211 5.91007 18.9898 6.08043 19.1517C6.45754 19.51 6.84777 19.8555 7.25474 20.1791C7.54593 20.4109 7.83691 20.6345 8.13699 20.8551C8.14016 20.8578 8.14376 20.8604 8.14757 20.8631C7.84093 20.5946 7.54189 20.3137 7.24625 20.035C7.22974 20.0198 7.21345 20.0044 7.19927 19.991C6.94278 19.7824 6.69603 19.565 6.45669 19.3439C6.2385 19.1429 6.0182 18.9308 5.8146 18.7156C5.57314 18.4599 5.33294 18.2051 5.10587 17.9361C5.00556 17.8176 4.90038 17.6993 4.8041 17.5772C4.80262 17.5808 4.79965 17.5846 4.7969 17.5874C4.78315 17.6003 4.76093 17.5999 4.74802 17.5861C4.18172 17.0096 3.67361 16.3464 3.22666 15.6741C3.03852 15.3914 2.86859 15.1038 2.69273 14.8136C2.5774 14.6236 2.47666 14.423 2.36894 14.2283C2.33699 14.1713 2.30673 14.1134 2.27647 14.0539C2.02527 13.6823 1.78042 13.2992 1.54618 12.9164C1.53242 12.895 1.53856 12.8654 1.5593 12.851C1.52798 12.7979 1.49687 12.7454 1.46534 12.6927C1.22917 12.3012 1.00993 11.8818 0.824117 11.463C0.729521 11.2503 0.639795 11.0351 0.560855 10.8159C0.520436 10.7039 0.483612 10.5901 0.443614 10.4781C0.394517 10.3423 0.352615 10.1905 0.315792 10.0506C0.254211 9.81828 0.19834 9.58782 0.152632 9.35167C0.120042 9.18131 0.0957038 9.01095 0.0709456 8.83954C0.037509 8.60443 0.0152913 8.35196 0.0070349 8.11451C0.000262954 7.91347 -0.00291121 7.71285 0.00343731 7.51137C0.0144415 7.16241 0.0491476 6.81408 0.108191 6.4706C0.10671 6.45685 0.10544 6.44352 0.104593 6.42976C0.0997259 6.4177 0.0976096 6.40458 0.100149 6.39124C0.100149 6.38976 0.100572 6.38765 0.100996 6.38574C0.00830668 5.14501 0.521702 3.93072 1.37434 3.01689C1.62278 2.75066 1.8816 2.5073 2.1692 2.2834C3.38203 1.34021 4.97447 0.747255 6.51804 0.768167C6.68755 0.770707 6.86426 0.78023 7.03313 0.800546C7.08075 0.80626 7.12857 0.814724 7.17619 0.820015C7.24856 0.828057 7.33554 0.841812 7.40643 0.857896C7.49574 0.878212 7.58885 0.895142 7.67752 0.917365C7.70906 0.917153 7.74059 0.91673 7.7717 0.914614C7.8737 0.908477 7.98163 0.918211 8.08405 0.918634C8.20933 0.919058 8.35302 0.930485 8.47788 0.944875C8.54074 0.952282 8.60613 0.95588 8.66813 0.965614C8.78494 0.984237 8.90472 1.00413 9.02154 1.02063C9.12439 1.03524 9.23803 1.05979 9.33919 1.08455C9.41918 1.10402 9.49854 1.11925 9.57832 1.14147C9.91353 1.23586 10.2522 1.32643 10.5744 1.46145C10.7116 1.51901 10.8584 1.56874 10.992 1.63434C11.0527 1.66418 11.1171 1.68957 11.1784 1.71836C11.3048 1.77783 11.4273 1.84131 11.5521 1.90289C11.7363 1.99347 11.9199 2.09991 12.0962 2.20466C12.4604 2.42052 12.7961 2.65352 13.1379 2.90239C13.1982 2.94641 13.2568 2.99657 13.3158 3.04227C13.3232 3.04841 13.3309 3.05412 13.3374 3.06174C13.3846 3.08735 13.4276 3.11634 13.4701 3.14512C13.9535 3.47589 14.411 3.84155 14.8478 4.23118C14.9538 4.02887 15.0723 3.83269 15.2018 3.63861C15.3786 3.37324 15.6014 3.11675 15.826 2.89072C16.4517 2.26049 17.2178 1.79642 18.0512 1.48827C18.0596 1.48087 18.0636 1.47811 18.0681 1.47515C18.3271 1.30459 18.598 1.15454 18.8727 1.01043C19.0338 0.92599 19.2113 0.851076 19.3795 0.781449C19.5273 0.720502 19.676 0.66294 19.8269 0.61046C19.9958 0.551631 20.1681 0.504861 20.3399 0.457035C20.4472 0.427196 20.5532 0.402014 20.662 0.378524C20.721 0.366038 20.7788 0.350589 20.8387 0.341066C20.9354 0.325194 21.0317 0.302974 21.1284 0.288795C21.2247 0.274617 21.3208 0.262554 21.4171 0.249222C21.5817 0.226578 21.7552 0.21769 21.9216 0.208378C22.1829 0.193353 22.4684 0.19293 22.7293 0.211976C22.8233 0.218748 22.917 0.226578 23.0114 0.232504C23.1615 0.242238 23.3261 0.268479 23.4749 0.291972C23.9102 0.361171 24.3097 0.461482 24.7289 0.596287C25.0112 0.687286 25.302 0.807063 25.5695 0.935941C25.6597 0.979747 25.749 1.0225 25.8372 1.07032C25.8812 1.09424 25.9263 1.11392 25.9695 1.14037C26.037 1.18122 26.1083 1.21804 26.1767 1.25804C26.2571 1.30502 26.3369 1.3575 26.416 1.40681C26.6414 1.5469 26.8634 1.71684 27.0697 1.88381C27.5321 2.25753 27.9496 2.70256 28.2933 3.1948C28.7024 3.67223 29.0592 4.22035 29.3091 4.78453C29.3804 4.94685 29.4462 5.11106 29.5053 5.27719C29.4902 5.18091 29.4737 5.08546 29.4572 4.99087C29.4536 4.96864 29.4689 4.94685 29.4911 4.94304C29.5133 4.93944 29.5353 4.95489 29.5389 4.97711C29.5652 5.1263 29.5899 5.27677 29.6109 5.42808C29.7213 5.47717 29.8329 5.52564 29.9454 5.57304C29.9931 5.59569 30.0134 5.65304 29.9907 5.70086C29.9681 5.74848 29.9105 5.76879 29.8629 5.74615C29.7869 5.70975 29.7116 5.67039 29.6367 5.63039C29.6416 5.66997 29.646 5.71018 29.6502 5.74975C30.1109 7.5272 29.7493 9.41993 29.0507 11.086C28.2883 12.9043 27.1815 14.5251 25.8861 16.0042C25.7564 16.1521 25.6245 16.2985 25.4902 16.4426C25.4356 16.5351 25.3801 16.6261 25.3243 16.7148C25.1272 17.0263 24.9256 17.3251 24.7065 17.6216C24.4558 17.9614 24.1885 18.2884 23.9117 18.6071C23.9616 18.6338 24.0109 18.6613 24.0611 18.6879C24.1055 18.7082 24.1258 18.7616 24.1055 18.806C24.0852 18.8507 24.0319 18.8708 23.9874 18.8507C23.9138 18.8263 23.841 18.7988 23.769 18.77C23.707 18.8401 23.6448 18.9097 23.5826 18.9787C23.0023 19.6216 22.3685 20.2275 21.7178 20.7982C21.6926 20.8205 21.6676 20.8425 21.6424 20.8643C21.7423 20.922 21.8443 20.9798 21.9451 21.0321C21.9645 21.0406 21.973 21.0636 21.9645 21.0831C21.9558 21.1026 21.933 21.111 21.9135 21.1026C21.7965 21.0596 21.6776 21.0209 21.5607 20.9779C21.5491 20.9739 21.5373 20.9695 21.526 20.9654C21.3561 21.1123 21.1849 21.257 21.0118 21.4001C20.8404 21.547 20.6675 21.6924 20.4933 21.8354C20.4908 21.8468 20.4872 21.8576 20.4815 21.8682C20.4597 21.9086 20.4184 21.9313 20.3759 21.9317C20.1467 22.119 19.9147 22.3035 19.6805 22.4855C19.7044 22.498 19.7279 22.5105 19.7518 22.5232C19.806 22.5518 19.8267 22.6195 19.7979 22.6737C19.7691 22.7278 19.7016 22.7484 19.6475 22.7198C19.5929 22.6934 19.5387 22.6658 19.4843 22.6377C19.2373 22.8273 18.988 23.015 18.7373 23.2004C18.7146 23.2182 18.6924 23.236 18.6698 23.2537C18.8101 23.1983 18.9512 23.145 19.09 23.0919C18.9997 23.1858 18.8674 23.2764 18.7631 23.3577C18.6952 23.4103 18.626 23.4616 18.5557 23.5113C18.7028 23.5923 18.8501 23.6732 18.9974 23.7549C19.0431 23.7775 19.0621 23.8338 19.0395 23.8795C19.0168 23.9252 18.9605 23.9443 18.9148 23.9216C18.7178 23.8402 18.5261 23.7517 18.3369 23.6577C18.251 23.7128 18.1636 23.7646 18.0764 23.8135C17.9845 23.8649 17.8882 23.9089 17.7936 23.9551C17.7498 23.9767 17.7062 23.998 17.6624 24.0194C17.0388 24.475 16.3999 24.9086 15.7487 25.3249C15.7705 25.3584 15.7758 25.4022 15.7593 25.4413C15.7326 25.5044 15.659 25.5336 15.5959 25.5069C15.5695 25.4959 15.5428 25.4843 15.5166 25.472C15.3041 25.6055 15.0906 25.7374 14.8762 25.8673C14.8381 25.8904 14.788 25.8781 14.7649 25.8402ZM16.0025 24.9655C15.9001 24.9406 15.7989 24.9145 15.6986 24.8883C15.5549 24.9628 15.4102 25.036 15.2654 25.1067C15.2618 25.1088 15.258 25.1101 15.2548 25.1107C15.3632 25.1545 15.4732 25.197 15.5824 25.2379C15.7234 25.1479 15.8628 25.0574 16.0025 24.9655ZM15.1873 25.0768C15.1905 25.0756 15.1882 25.0768 15.186 25.0777H15.1873C15.1869 25.0777 15.1869 25.0773 15.1873 25.0768ZM15.4231 24.8134C15.3236 24.7857 15.2237 24.7564 15.1238 24.7262C14.9325 24.6695 14.7391 24.5998 14.5518 24.5306C14.2087 24.4041 13.8648 24.2697 13.5324 24.1173C13.0975 23.9178 12.6773 23.7121 12.2565 23.4838C12.1425 23.4228 12.0301 23.3602 11.9222 23.2982C11.8779 23.2772 11.8348 23.2561 11.8068 23.2414C11.8015 23.2489 11.791 23.2512 11.7829 23.2463C11.6555 23.1868 11.5249 23.1157 11.4016 23.0478C11.3421 23.0154 11.2828 22.9826 11.2287 22.9528C11.2562 22.9714 11.289 22.9924 11.3222 23.0129C11.7745 23.3039 12.2299 23.5785 12.6976 23.8435C13.1862 24.1205 13.6854 24.3783 14.1889 24.6265C14.4341 24.748 14.6866 24.8665 14.9738 24.989C15.1246 24.9332 15.2743 24.8745 15.4231 24.8134ZM16.4134 24.6908C16.4179 24.6775 16.4268 24.6655 16.4393 24.657C16.5485 24.5812 16.6585 24.5053 16.769 24.4295C16.5364 24.5323 16.3026 24.6343 16.0679 24.7306C16.0869 24.7622 16.0886 24.803 16.0692 24.836C16.078 24.8386 16.0874 24.8407 16.0967 24.8426C16.1153 24.847 16.1303 24.8591 16.1398 24.8745C16.2313 24.8134 16.3222 24.7524 16.4134 24.6908ZM15.669 24.7099C15.6036 24.6703 15.538 24.6303 15.4717 24.5893C15.436 24.5816 15.3994 24.5732 15.3625 24.5643C15.1363 24.5114 14.9135 24.4466 14.6902 24.3831C14.5057 24.3309 14.3224 24.2735 14.1408 24.2124C14.265 24.2629 14.3897 24.3118 14.515 24.3588C14.8838 24.4987 15.2578 24.6189 15.637 24.7236C15.6476 24.7192 15.6582 24.7148 15.669 24.7099ZM16.2192 24.4005C16.3514 24.3135 16.4784 24.2208 16.6056 24.1277C16.4594 24.0319 16.3146 23.9349 16.1711 23.835C15.8304 23.5991 15.4931 23.3536 15.1553 23.1134C14.5425 22.6777 13.9247 22.246 13.3189 21.8007C13.1473 21.6744 12.9746 21.55 12.8036 21.4232C12.4521 21.1635 12.1065 20.8946 11.7607 20.6277C11.4625 20.3975 11.1673 20.1551 10.8797 19.9124C10.2713 19.399 9.69121 18.877 9.13022 18.3117C8.76411 17.9428 8.39928 17.5549 8.06789 17.1549L8.08482 17.1403C8.37982 17.4963 8.70107 17.8362 9.02379 18.1665C9.60954 18.766 10.2376 19.3189 10.8861 19.8493C11.7781 20.5785 12.7234 21.2623 13.677 21.909C14.1426 22.225 14.6077 22.5409 15.0756 22.8539C15.4944 23.1339 15.9187 23.4109 16.3309 23.7002C16.4757 23.8022 16.616 23.9097 16.7572 24.017C16.8232 23.9692 16.8898 23.9186 16.9529 23.8669C17.1269 23.7241 17.3086 23.5889 17.4784 23.4409C17.5347 23.3916 17.5929 23.3438 17.6517 23.2964C16.9518 22.9119 16.2795 22.4971 15.6133 22.0576C14.7463 21.4864 13.9147 20.8509 13.1153 20.1892C12.3465 19.5528 11.5933 18.8623 10.9003 18.1438C10.7117 17.9485 10.5301 17.7443 10.3494 17.5411C9.96997 17.1151 9.60915 16.6783 9.25111 16.2346C9.23291 16.2123 9.2365 16.1787 9.25873 16.1605C9.28116 16.1423 9.31459 16.1459 9.33279 16.1683C9.57066 16.4631 9.8117 16.7479 10.0623 17.0319C10.3624 17.3724 10.6819 17.6952 11.0006 18.0185C11.2495 18.2708 11.4985 18.5237 11.7567 18.7668C11.9209 18.9217 12.0879 19.073 12.2542 19.2254C12.603 19.5454 12.9727 19.8467 13.339 20.1457C13.9863 20.6739 14.6748 21.1695 15.3693 21.6334C16.0154 22.0652 16.6848 22.4814 17.3633 22.86C17.5275 22.9523 17.6926 23.0424 17.8576 23.1326C17.8737 23.1201 17.8896 23.1072 17.9057 23.0943C18.0504 22.9777 18.1937 22.8579 18.3361 22.739C18.5109 22.593 18.6836 22.4442 18.8546 22.2933C18.5469 22.1185 18.2439 21.9348 17.9457 21.7456C17.1788 21.2589 16.4273 20.7493 15.6983 20.2065C15.5469 20.0939 15.395 19.9824 15.2443 19.8692C14.8928 19.6042 14.5487 19.33 14.2031 19.0568C13.6106 18.5884 13.0367 18.0973 12.4634 17.6059C11.6573 16.9149 10.8675 16.1961 10.0904 15.4725L10.0894 15.4454L10.1165 15.4441C10.9215 16.1942 11.7443 16.9274 12.5868 17.6351C13.177 18.1305 13.7788 18.6227 14.3953 19.0859C15.1582 19.6592 15.922 20.2194 16.7221 20.7404C16.9854 20.9118 17.2493 21.0847 17.5174 21.2485C18.017 21.5539 18.5234 21.8482 19.0352 22.1331C19.2301 21.9591 19.4231 21.7829 19.6148 21.6059C19.6353 21.5871 19.6561 21.5681 19.6766 21.549C19.5367 21.4648 19.3983 21.3787 19.2608 21.2917C18.1144 20.5692 17.0425 19.7348 16.0155 18.8525C15.2594 18.2033 14.5314 17.5301 13.8104 16.8425C13.5294 16.5744 13.2467 16.305 12.9716 16.0311C12.5322 15.5937 12.0849 15.1645 11.6472 14.7256V14.7038H11.669C12.9777 16.0169 14.3173 17.3019 15.7324 18.501C16.6972 19.3185 17.7238 20.0924 18.7938 20.7679C19.1368 20.9846 19.4871 21.1949 19.8439 21.3928C20.123 21.1306 20.3981 20.8633 20.6703 20.5944C20.3846 20.4502 20.1027 20.2898 19.8272 20.132C19.2275 19.7885 18.6457 19.4264 18.0697 19.0442C17.6437 18.7619 17.23 18.4646 16.8185 18.1615C16.4182 17.8668 16.0224 17.5593 15.6402 17.2414C15.4375 17.0728 15.2324 16.9064 15.0335 16.7333C14.2033 16.0108 13.4089 15.2613 12.6561 14.4592C12.6485 14.4509 12.6489 14.4368 12.657 14.4291C12.665 14.4215 12.6792 14.4219 12.6868 14.43C13.0538 14.8206 13.4319 15.1933 13.819 15.5639C13.9432 15.6828 14.0702 15.8026 14.1984 15.9171C14.3186 16.0242 14.4401 16.1306 14.5605 16.2377C14.8011 16.4518 15.0468 16.6633 15.2976 16.8656C15.5151 17.0412 15.7339 17.2237 15.9572 17.391C16.1053 17.5019 16.255 17.6143 16.4014 17.7271C16.5425 17.8361 16.693 17.9391 16.8384 18.0426C17.1683 18.2773 17.501 18.501 17.8387 18.7243C18.1913 18.9573 18.5615 19.1867 18.9279 19.397C19.2084 19.5576 19.4889 19.7267 19.7751 19.8759C19.985 19.9855 20.1928 20.1004 20.4053 20.2061C20.5505 20.2784 20.6978 20.3495 20.8421 20.4244C21.1473 20.121 21.4478 19.8133 21.7447 19.5022C21.5472 19.3589 21.3489 19.2161 21.1479 19.079C20.8304 18.8631 20.5132 18.6487 20.1937 18.4359C19.9275 18.2587 19.654 18.0888 19.3859 17.9144C18.7722 17.5157 18.1539 17.124 17.541 16.7232C16.5053 16.046 15.4916 15.3208 14.5613 14.5037C14.4489 14.4046 14.3226 14.2982 14.2195 14.1905C14.0744 14.0394 13.933 13.8841 13.7859 13.7351C13.7673 13.7164 13.7677 13.6853 13.7863 13.6667C13.805 13.6481 13.8361 13.6485 13.8547 13.6671C14.0003 13.8286 14.1787 13.9657 14.3395 14.1109C14.5095 14.2637 14.6766 14.4239 14.8529 14.5695C14.9416 14.6427 15.029 14.7176 15.1175 14.7909C15.3177 14.9568 15.5257 15.1144 15.7328 15.2719C16.0418 15.5068 16.361 15.726 16.6813 15.9453C17.3071 16.3734 17.9524 16.7721 18.5972 17.1714C19.1578 17.5185 19.7179 17.866 20.2749 18.2188C20.5824 18.4132 20.885 18.6164 21.1864 18.8202C21.4314 18.9865 21.6718 19.1552 21.9072 19.3311C22.2191 19.0007 22.527 18.667 22.8307 18.3293C22.4229 18.1269 22.0283 17.9096 21.6297 17.6872C21.3631 17.5384 21.0981 17.3841 20.8376 17.2256C19.5848 16.4644 18.3944 15.6239 17.2464 14.7124C16.8354 14.386 16.4306 14.0559 16.0304 13.716C15.9297 13.6303 15.8275 13.5461 15.7287 13.4585C15.4104 13.1757 15.109 12.8816 14.7971 12.5927C14.7753 12.5726 14.774 12.5373 14.7944 12.5155C14.8147 12.4937 14.8498 12.4924 14.8716 12.5127C15.0309 12.6607 15.1937 12.8084 15.3607 12.9474C15.4521 13.024 15.5456 13.0987 15.6362 13.1758C15.7397 13.2638 15.8391 13.3582 15.9435 13.4454C16.0844 13.5637 16.2251 13.6822 16.365 13.8015C16.4746 13.8949 16.59 13.984 16.7019 14.0749C16.9681 14.2912 17.2405 14.5045 17.5143 14.7109C18.6759 15.5861 19.8949 16.3969 21.1464 17.1386C21.4958 17.3458 21.8495 17.5464 22.2071 17.7394C22.4667 17.8797 22.7287 18.0145 22.991 18.1508C23.2798 17.827 23.5653 17.5002 23.8484 17.171C23.7644 17.1274 23.6806 17.0827 23.5968 17.0395C23.1427 16.8044 22.6887 16.5615 22.2454 16.3069C21.9104 16.1148 21.5784 15.9207 21.248 15.7216C21.0737 15.6164 20.902 15.5059 20.7285 15.3997C20.6144 15.3296 20.5025 15.2547 20.3903 15.1817C20.1343 15.0141 19.8807 14.8454 19.6262 14.6751C19.0918 14.3177 18.5814 13.9264 18.0684 13.5389C17.9537 13.4523 17.8416 13.3592 17.7292 13.2695C17.4164 13.0204 17.1079 12.7626 16.808 12.4981C16.7161 12.4168 16.6224 12.3379 16.5318 12.2554C16.3824 12.1191 16.2345 11.9811 16.0855 11.844C16.0667 11.8266 16.0654 11.7962 16.0828 11.7773C16.1001 11.7583 16.1306 11.757 16.1494 11.7744C16.4542 12.0575 16.7612 12.3326 17.0765 12.6033C17.234 12.7379 17.3965 12.8678 17.5556 13.0001C17.6697 13.0951 17.7901 13.185 17.9071 13.2767C18.3052 13.5895 18.7153 13.8881 19.1299 14.1784C19.6537 14.5454 20.1963 14.892 20.7418 15.2249C20.9056 15.3248 21.0728 15.4206 21.237 15.5201C21.3826 15.6083 21.5335 15.6896 21.6812 15.7747C22.2515 16.1031 22.8413 16.4036 23.4286 16.7014C23.6199 16.7989 23.8138 16.8922 24.0072 16.9854C24.2438 16.7075 24.4764 16.4267 24.7049 16.1427C24.5945 16.0864 24.4844 16.0299 24.3765 15.9695C24.0362 15.7818 23.701 15.5882 23.3691 15.3855C22.7495 15.0065 22.1491 14.5906 21.5583 14.1678C20.5287 13.4315 19.5324 12.645 18.5175 11.8875C18.237 11.6784 17.9552 11.4622 17.6688 11.2611C17.5567 11.1826 17.4682 11.0961 17.3654 11.0078C17.3104 10.9604 17.2509 10.9164 17.1931 10.8724L17.206 10.8546C17.3364 10.9475 17.4691 11.0171 17.6054 11.0988C17.6559 11.1291 17.7021 11.1649 17.7493 11.1996C17.8202 11.2514 17.8917 11.3031 17.9626 11.3549C18.9506 12.0778 19.9336 12.8132 20.9406 13.5101C21.2952 13.7558 21.6507 13.9991 22.0101 14.2382C22.2786 14.4171 22.5516 14.588 22.8232 14.7616C23.2737 15.0496 23.7393 15.3183 24.2053 15.5803C24.4226 15.7029 24.6442 15.8243 24.8675 15.9384C25.0493 15.7094 25.2277 15.4781 25.4027 15.2439C25.1604 15.1366 24.921 15.0238 24.6836 14.9065C24.4138 14.7734 24.1444 14.6173 23.8826 14.4681C23.536 14.2702 23.1912 14.0704 22.8507 13.8619C21.4919 13.0302 20.1955 12.1351 18.9359 11.1604C18.9213 11.1489 18.9183 11.1276 18.9298 11.113C18.941 11.0984 18.9626 11.0956 18.9772 11.1068C19.229 11.2998 19.4798 11.4888 19.7352 11.6771C20.0899 11.9398 20.4577 12.1829 20.8229 12.4301C21.0667 12.5951 21.3187 12.7528 21.5691 12.9081C21.9703 13.1574 22.3806 13.4016 22.7936 13.6306C23.2005 13.8564 23.6079 14.0767 24.0229 14.2866C24.2927 14.4231 24.5669 14.5511 24.8355 14.6887C25.0719 14.8102 25.3085 14.9314 25.5451 15.0529C25.6964 14.8474 25.8456 14.6398 25.992 14.4303C26.2547 13.9927 26.5029 13.5493 26.7465 13.0998C26.9321 12.7568 27.1098 12.4093 27.2817 12.0599C26.927 11.9992 26.5814 11.8745 26.2481 11.7435C26.0236 11.6553 25.7967 11.5635 25.5796 11.4583C25.376 11.3597 25.1726 11.2642 24.9718 11.159C24.8979 11.1201 24.8251 11.0784 24.7506 11.0401C24.3922 10.8541 24.0432 10.6385 23.6961 10.4321C23.1233 10.0918 22.557 9.73838 21.9866 9.3941C21.9769 9.38838 21.9737 9.37463 21.9792 9.36511C21.9849 9.35537 21.9987 9.35199 22.0084 9.3577C22.2539 9.50732 22.5028 9.65101 22.7491 9.79914C22.9963 9.94749 23.2458 10.0956 23.497 10.2372C23.6735 10.3367 23.8481 10.4387 24.0258 10.536C24.5119 10.8031 25.0131 11.0566 25.5256 11.2695C25.8864 11.4191 26.2587 11.5624 26.6345 11.6695C26.8796 11.7395 27.1281 11.8013 27.3723 11.875C27.543 11.5234 27.7092 11.1702 27.8738 10.816C27.8277 10.8075 27.782 10.7978 27.7362 10.784C27.6776 10.7671 27.6177 10.7529 27.5591 10.7356C27.3439 10.6717 27.1365 10.5967 26.9281 10.5134C26.84 10.4782 26.7461 10.4397 26.6612 10.3976C26.5438 10.3398 26.4225 10.2888 26.3068 10.2283C26.1229 10.1316 25.9436 10.0317 25.7612 9.93246C25.6795 9.88801 25.5966 9.83701 25.5172 9.78855C25.3695 9.6984 25.222 9.60804 25.0743 9.51789C24.9966 9.47048 24.9215 9.41843 24.8438 9.37102C24.6682 9.26352 24.4959 9.14776 24.3224 9.03644C24.1601 8.93254 23.9958 8.83138 23.8342 8.72748C23.5129 8.52114 23.1775 8.33682 22.8427 8.15441C22.8082 8.136 22.7957 8.09283 22.8139 8.05833C22.8321 8.02405 22.8753 8.01156 22.9098 8.02976C23.122 8.147 23.3377 8.25874 23.5463 8.38254C23.7482 8.50253 23.9482 8.62591 24.1499 8.74653C24.5715 8.99815 24.9824 9.26438 25.4084 9.50987C25.5438 9.58796 25.6844 9.67239 25.8234 9.74287C25.9222 9.79302 26.02 9.84931 26.1195 9.89735C26.2295 9.95068 26.3396 10.0061 26.4509 10.0571C26.5224 10.0899 26.5969 10.1189 26.6688 10.1511C27.0265 10.31 27.4455 10.4524 27.8294 10.528C27.8823 10.539 27.9367 10.5519 27.9904 10.5648C27.9976 10.5498 28.0046 10.5345 28.0118 10.5191C28.0429 10.4516 28.0744 10.3837 28.1062 10.3159C28.1348 10.2302 28.1648 10.1441 28.1915 10.0576C28.2404 9.8982 28.295 9.73927 28.3455 9.57992C28.4516 9.24576 28.5531 8.90863 28.6509 8.57214C28.7148 8.35248 28.7787 8.11716 28.8418 7.90681C28.8625 7.81201 28.8909 7.71551 28.9135 7.62027C28.9523 7.45775 28.9838 7.2785 29.0033 7.11238C29.0659 6.57506 29.0627 6.04831 28.962 5.51566C28.9535 5.47122 28.9446 5.42593 28.9353 5.38085C28.9309 5.3671 28.9264 5.35355 28.922 5.3398C28.9074 5.29726 28.8913 5.25113 28.8737 5.20584C28.5098 4.99379 28.1529 4.76693 27.8044 4.53352C27.6882 4.45628 27.5754 4.37544 27.4633 4.29333L27.1325 4.05017L26.7998 4.24719L26.791 4.23174C26.8805 4.17757 26.9706 4.12339 27.0604 4.06985C27.0714 4.0635 27.1281 4.02393 27.1357 4.02795C27.1575 4.03916 27.189 4.06583 27.2121 4.08212C27.2885 4.13588 27.3651 4.19048 27.4411 4.24507C27.6301 4.3803 27.8355 4.50029 28.0332 4.6224C28.2186 4.73688 28.4175 4.84418 28.6105 4.94533C28.6753 4.97961 28.7409 5.01284 28.8058 5.04607C28.7339 4.88587 28.6628 4.7172 28.575 4.56631C28.5085 4.4531 28.4488 4.33691 28.3762 4.22687C28.2975 4.10709 28.2199 3.99197 28.1377 3.8741C28.0233 3.7103 27.8865 3.54164 27.7526 3.39329C27.3367 2.93174 26.8881 2.52523 26.3741 2.17477C26.1337 2.01097 25.8903 1.85607 25.6366 1.71364C24.5197 1.08705 23.1477 0.69953 21.8621 0.751376C21.5652 0.763439 21.2848 0.795394 20.9921 0.846395C20.9633 0.850839 20.9354 0.830946 20.9309 0.802377C20.9265 0.773596 20.9464 0.745661 20.9749 0.741218C21.1705 0.70757 21.3633 0.680482 21.5607 0.661434C21.7444 0.643658 21.9285 0.641753 22.1124 0.638155C22.2464 0.635616 22.3799 0.644927 22.5134 0.649794C22.6986 0.656566 22.8931 0.678998 23.0764 0.70566C23.4105 0.754545 23.7428 0.817609 24.0674 0.911148C24.2536 0.964478 24.4356 1.01908 24.618 1.08468C24.6629 1.10076 24.7112 1.11579 24.7547 1.13399C24.8821 1.18689 25.0125 1.23302 25.1395 1.28932C25.3247 1.37143 25.5026 1.45841 25.6844 1.54856C25.7661 1.5894 25.8518 1.63723 25.9308 1.68379C26.0977 1.78198 26.2672 1.87742 26.427 1.98789C26.6951 2.17349 26.9516 2.36649 27.1976 2.58128C27.4634 2.81343 27.7279 3.07351 27.9554 3.34331C28.098 3.51324 28.2328 3.68805 28.3602 3.87047C28.094 3.40362 27.7687 2.9789 27.3963 2.6007C27.3478 2.55901 27.3004 2.51774 27.2555 2.47457C27.2422 2.46357 27.2325 2.44981 27.2259 2.43394C27.0289 2.24919 26.8202 2.07566 26.601 1.91504C26.3671 1.74384 26.1168 1.57856 25.8612 1.44227C25.6912 1.35149 25.5257 1.26176 25.349 1.18409C24.9247 0.997231 24.4827 0.829834 24.0283 0.730584C23.877 0.697571 23.7265 0.658211 23.5733 0.633659C23.3168 0.592604 23.0542 0.553874 22.7945 0.54097C22.6432 0.53314 22.486 0.520231 22.3347 0.524675C22.1444 0.529965 21.9527 0.529119 21.7631 0.546684C21.2983 0.588585 20.8617 0.658632 20.4112 0.781583C20.3371 0.801899 20.2614 0.82158 20.1886 0.845494C20.1054 0.873005 20.0189 0.897765 19.9368 0.92718C19.8303 0.965696 19.7256 1.00569 19.6217 1.04781C20.051 0.973739 20.4836 0.931205 20.9107 0.91745C21.35 0.903271 21.7781 0.91872 22.2157 0.959987C22.3609 0.974166 22.5078 0.990249 22.6557 1.01014C22.6828 1.01183 22.7111 1.01332 22.7395 1.01416C22.752 1.01416 22.7643 1.01903 22.7732 1.02665C22.9183 1.04823 23.0622 1.07278 23.2047 1.10114C23.3031 1.12103 23.4013 1.14452 23.4997 1.16357C23.6283 1.18854 23.7585 1.22409 23.885 1.25732C23.9542 1.27552 24.0243 1.29287 24.0926 1.31403C24.4215 1.41582 24.7459 1.51063 25.0574 1.66216C25.2536 1.7576 25.4449 1.88309 25.6193 2.01451C25.6743 2.05577 25.7276 2.10149 25.7835 2.14148C25.7494 2.14635 25.5755 2.08773 25.531 2.07398C25.3446 2.0162 25.1552 1.96647 24.9688 1.90743C24.7832 1.84881 24.6018 1.77792 24.4175 1.71612C24.3677 1.69941 24.3191 1.68036 24.2689 1.66597C24.1553 1.63317 24.0425 1.59634 23.9284 1.56397C23.6804 1.49307 23.4199 1.43128 23.1667 1.38346C22.8119 1.31679 22.4555 1.26389 22.0959 1.23299C22.0125 1.22622 21.9296 1.21776 21.846 1.21162C21.7804 1.22051 21.7144 1.23194 21.6485 1.23998C21.504 1.25818 21.3508 1.29013 21.2084 1.32124C20.9576 1.37668 20.7064 1.43658 20.4622 1.51615C20.2796 1.57562 20.1016 1.6391 19.9257 1.70682C20.2381 1.87252 20.5532 2.03441 20.8658 2.19863C20.9746 2.25598 21.0855 2.311 21.1934 2.37005C21.3853 2.47459 21.5754 2.58336 21.7675 2.68642C21.8044 2.70822 21.816 2.75647 21.7942 2.79329C21.7724 2.83012 21.7242 2.84176 21.6873 2.81996C21.5083 2.70589 21.3295 2.59352 21.1494 2.48136C21.0277 2.40581 20.8999 2.33301 20.7757 2.26043C20.4686 2.08203 20.1596 1.9085 19.85 1.73624C19.6297 1.82279 19.4124 1.91675 19.1953 2.01812C19.0342 2.09345 18.8727 2.17726 18.7142 2.26466C19.0241 2.49724 19.3258 2.75689 19.652 2.96428C19.7442 3.02311 19.8392 3.07686 19.9355 3.12893C20.09 3.21273 20.2511 3.26119 20.4172 3.31389C20.4807 3.33653 20.5135 3.40722 20.4908 3.47091C20.4682 3.5344 20.3975 3.56699 20.334 3.54435C20.0483 3.43409 19.7728 3.25929 19.5375 3.06438C19.4359 2.98016 19.3392 2.89191 19.2389 2.8062C19.0594 2.65214 18.8859 2.4911 18.7058 2.33661C18.6895 2.32328 18.6734 2.30952 18.6573 2.29619C18.5833 2.33788 18.5096 2.37978 18.4377 2.42232C18.3636 2.46591 18.2912 2.51501 18.2167 2.55733C18.1545 2.5931 18.0946 2.635 18.0343 2.67393C17.9349 2.73785 17.8381 2.80345 17.7431 2.87011C17.8506 2.96597 17.9638 3.06057 18.0739 3.15199C18.5065 3.51323 18.9316 3.87318 19.4342 4.13268C19.5366 4.18558 19.639 4.22071 19.7451 4.26282C19.8069 4.28758 19.8371 4.35826 19.8126 4.42027C19.7878 4.48206 19.7171 4.51254 19.6551 4.48778C19.1278 4.27911 18.6601 3.88551 18.2345 3.51852C18.1067 3.40848 17.974 3.29653 17.8502 3.18246C17.7721 3.11073 17.6891 3.03517 17.6074 2.96724C17.4441 3.08575 17.2839 3.2087 17.1224 3.33398C17.0056 3.42519 16.8936 3.52021 16.7832 3.61693C16.8382 3.65819 16.8928 3.69946 16.9465 3.74178C17.1232 3.88231 17.3097 4.01605 17.4946 4.14598C18.0404 4.52987 18.5837 4.83483 19.202 5.0856C19.2571 5.10867 19.2831 5.17343 19.26 5.22845C19.2369 5.28347 19.1722 5.30929 19.1172 5.28622C19.0128 5.24496 18.8998 5.19205 18.7995 5.14105C18.6148 5.0473 18.4372 4.95545 18.2576 4.85091C17.9534 4.67421 17.6625 4.48078 17.377 4.27508C17.1694 4.12525 16.9531 3.97203 16.7565 3.80866C16.7237 3.78178 16.6913 3.7547 16.6589 3.72761C16.5728 3.80464 16.4873 3.88231 16.4012 3.95912C16.3301 4.02261 16.26 4.0897 16.1917 4.15805C16.2124 4.17434 16.2329 4.19085 16.2541 4.20693C16.8741 4.69409 17.5253 5.12158 18.2332 5.47161C18.5003 5.60345 18.7803 5.72682 19.0634 5.81952C19.1239 5.84089 19.1554 5.90798 19.1341 5.96871C19.1127 6.02945 19.0456 6.06098 18.9849 6.0394C18.8109 5.97718 18.6313 5.91538 18.4643 5.83645C18.302 5.75963 18.1403 5.68429 17.9837 5.59562C17.6339 5.39797 17.3052 5.18761 16.9781 4.95418C16.6719 4.73621 16.3714 4.50808 16.0785 4.27168C16.0567 4.2939 16.0351 4.31591 16.0137 4.33728C15.905 4.44732 15.7977 4.5597 15.6925 4.67376C15.7528 4.72243 15.8127 4.7692 15.8726 4.81534C16.6439 5.41446 17.5554 5.87474 18.4546 6.24698C18.503 6.26793 18.5251 6.32549 18.5039 6.37396C18.4829 6.42263 18.4254 6.44443 18.3769 6.42327C18.2398 6.36063 18.1018 6.29989 17.9647 6.23725C17.8563 6.18752 17.7459 6.13207 17.639 6.07874C17.3429 5.9306 17.0554 5.78099 16.7705 5.61148C16.4943 5.44683 16.2169 5.27372 15.9595 5.08072C15.8334 4.98655 15.7088 4.89026 15.5873 4.78995C15.5655 4.8145 15.5437 4.83884 15.5219 4.8636C15.8571 5.19479 16.18 5.53743 16.5011 5.88215C16.5724 5.9594 16.6431 6.03706 16.714 6.11557C16.7933 6.16234 16.8737 6.20933 16.9518 6.25863C17.0259 6.30603 17.101 6.35492 17.1768 6.39979C17.2155 6.42454 17.2269 6.4764 17.2022 6.51512C17.1787 6.55237 17.1307 6.56443 17.0926 6.54432C17.1791 6.64252 17.2661 6.7405 17.3543 6.83764C17.4494 6.94281 17.5416 7.05074 17.6362 7.15634C17.7147 7.24416 17.7952 7.33114 17.8639 7.42701C17.9526 7.55081 18.0112 7.68625 18.0775 7.82169C17.9526 7.74318 17.8315 7.6708 17.7196 7.57345C17.6216 7.48796 17.5359 7.38088 17.4502 7.28289C17.3069 7.11952 17.163 6.95657 17.0189 6.79341C16.8166 6.56528 16.6145 6.338 16.4097 6.1122C16.3142 6.05168 16.2196 5.98862 16.1309 5.92386C16.0069 5.83391 15.8827 5.74588 15.7678 5.64557C15.7691 5.64705 15.7699 5.64832 15.771 5.64959C15.8385 5.74292 15.9018 5.84323 15.9627 5.94438C16.0825 6.07538 16.2031 6.20743 16.3187 6.34202C16.4672 6.51471 16.6137 6.68866 16.761 6.86219C16.8968 7.02197 17.0282 7.1919 17.1561 7.35867C17.3584 7.62277 17.5573 7.889 17.7548 8.15667C17.9177 8.37803 18.0743 8.60447 18.2373 8.82542C18.283 8.88933 18.2681 8.97863 18.2042 9.02434C18.1403 9.07006 18.0508 9.05503 18.0051 8.99112C17.8417 8.76785 17.6847 8.54057 17.5186 8.3188C17.315 8.04792 17.104 7.78297 16.8899 7.52036C16.7491 7.34767 16.6071 7.17583 16.4641 7.00506C16.4984 7.11383 16.5246 7.2279 16.5555 7.33667C16.5618 7.35424 16.5534 7.37392 16.536 7.38048C16.5187 7.38683 16.4988 7.37836 16.4922 7.36101C16.3536 7.09859 16.1983 6.84888 16.0493 6.59236C16.0061 6.51872 15.9636 6.44444 15.92 6.3708C15.7558 6.18626 15.5846 6.00427 15.4155 5.82628C15.2913 5.69677 15.1668 5.56789 15.0405 5.4407C15.0288 5.45572 15.017 5.47033 15.0058 5.48535C14.9899 5.50503 14.9609 5.50842 14.941 5.49255C14.9211 5.47689 14.918 5.44768 14.9338 5.42779C14.9478 5.41086 14.962 5.39308 14.9762 5.37573C14.8265 5.22548 14.6744 5.07798 14.5195 4.93301C13.9007 4.35631 13.2567 3.81906 12.5759 3.33928C12.4208 3.25357 12.2653 3.16977 12.1101 3.08575C11.9006 2.97296 11.6884 2.85847 11.4748 2.75287C11.3874 2.71689 11.2971 2.68452 11.2082 2.65615C10.9132 2.56261 10.6156 2.46633 10.3157 2.38866C9.99491 2.30592 9.67582 2.2382 9.34903 2.18317C9.02906 2.12942 8.70824 2.09662 8.38552 2.0708C8.15083 2.05218 7.90174 2.03842 7.66623 2.04054C7.38794 2.04287 7.1177 2.04541 6.8394 2.0598C6.68047 2.06826 6.51943 2.08541 6.36007 2.09747C6.29341 2.10276 6.22569 2.11482 6.15903 2.11969C6.01301 2.13027 5.85937 2.15736 5.71399 2.17873C5.39211 2.22698 5.0518 2.28645 4.73715 2.36982C4.51113 2.4295 4.28787 2.48664 4.06483 2.55817C3.2503 2.82037 2.42049 3.20952 1.7609 3.76211C1.64027 3.86327 1.51648 3.97289 1.39966 4.08886C1.3131 4.3045 1.23544 4.52205 1.16729 4.7466C1.12243 4.89516 1.08455 5.04478 1.04477 5.19482C0.961812 5.51077 0.916098 5.83772 0.866788 6.16001C0.836526 6.35873 0.819172 6.57183 0.806474 6.77247C0.755685 7.57134 0.781926 8.36301 0.886681 9.15663C0.942124 9.37841 1.00159 9.6004 1.06677 9.81795C1.43796 11.0619 1.90481 12.2654 2.46943 13.4225C2.53313 13.5351 2.59577 13.6456 2.65608 13.7563C2.81015 14.0411 2.97605 14.3234 3.13689 14.6042C3.16038 14.6455 3.18387 14.6867 3.20779 14.7284C3.25392 14.8 3.30047 14.8706 3.34682 14.9415C3.59484 15.3193 3.86424 15.6943 4.14591 16.0479C4.2659 16.1992 4.38568 16.3533 4.51308 16.498C4.76957 16.7894 5.02478 17.0681 5.29862 17.3431C5.44634 17.4916 5.60294 17.6328 5.75785 17.7735C6.11337 18.0971 6.50487 18.3912 6.90144 18.6623C6.98418 18.7188 7.07158 18.7711 7.15539 18.8265C7.32574 18.9393 7.4997 19.0506 7.67365 19.1577C7.72698 19.1905 7.782 19.2212 7.83449 19.2549C7.86496 19.2703 7.87703 19.3082 7.86158 19.3387C7.84634 19.3689 7.80825 19.381 7.77798 19.3658C7.31686 19.1838 6.89362 18.9309 6.49511 18.6371C6.33342 18.5178 6.16709 18.3984 6.01261 18.2696C5.97452 18.2382 5.93664 18.2067 5.89812 18.1747C6.04541 18.3335 6.19418 18.4903 6.34507 18.6445C7.2011 19.5211 8.09543 20.3502 9.04599 21.118C9.24619 21.2285 9.44935 21.3313 9.65314 21.4242C9.67938 21.4365 9.69081 21.4686 9.67874 21.4951C9.66647 21.5213 9.63409 21.5326 9.60785 21.5205C9.56214 21.4991 9.51685 21.4769 9.47241 21.4549C9.53632 21.5044 9.60066 21.5537 9.66541 21.6026C10.2736 22.065 10.9051 22.5007 11.5544 22.8975C11.8809 23.0543 12.2064 23.2012 12.5365 23.3462C12.7469 23.4382 12.9648 23.5241 13.1792 23.6058C13.6344 23.7793 14.0951 23.9396 14.5619 24.0786C14.6218 24.0968 14.6817 24.1141 14.7416 24.1313C14.0707 23.7097 13.4066 23.2789 12.7508 22.8355C11.8205 22.207 10.9068 21.537 10.0472 20.8143C9.50624 20.3591 8.98163 19.8851 8.49427 19.3725C8.35988 19.2313 8.25513 19.068 8.12689 18.9198C8.11885 18.9105 8.11969 18.8953 8.12901 18.887C8.13832 18.879 8.15355 18.8798 8.16181 18.8891C8.22275 18.9615 8.30127 19.0352 8.37279 19.0974C8.42549 19.1431 8.48178 19.1848 8.52897 19.2362C8.71711 19.4394 8.92027 19.6391 9.12192 19.8292C9.41037 20.1011 9.70176 20.3688 10.008 20.6208C10.1466 20.7349 10.2829 20.8526 10.4234 20.9647C10.7664 21.2386 11.1162 21.5103 11.473 21.7655C11.7534 21.9659 12.0328 22.1648 12.3163 22.3606C12.4964 22.4848 12.6801 22.6037 12.8609 22.7271C13.1387 22.9167 13.4284 23.0951 13.712 23.2765C14.2589 23.6263 14.8139 23.9658 15.3709 24.3007C15.4691 24.324 15.5684 24.3452 15.6649 24.3746C15.798 24.4158 15.9247 24.4624 16.0557 24.5068C16.1107 24.4713 16.1653 24.4357 16.2195 24.4002L16.2192 24.4005ZM16.2152 24.4644C16.3713 24.3753 16.5294 24.2833 16.6883 24.1901C16.6905 24.1889 16.6928 24.1876 16.6949 24.1865C16.6909 24.1836 16.6864 24.1808 16.6824 24.1781C16.5148 24.2847 16.3461 24.3886 16.176 24.483C16.1855 24.4786 16.1991 24.4725 16.2152 24.4644ZM17.4796 23.6975C17.6176 23.6093 17.7551 23.5191 17.8919 23.4277C17.8684 23.415 17.8449 23.4025 17.8214 23.3896C17.5516 23.5983 17.2733 23.797 16.9886 23.9806C16.9381 24.0134 16.8879 24.0456 16.8378 24.078C16.8433 24.0824 16.849 24.0867 16.8551 24.0911C17.065 23.9635 17.2729 23.8298 17.4796 23.6975ZM19.0581 22.6023C19.1083 22.5653 19.1589 22.5276 19.2094 22.49C19.2041 22.4872 19.1989 22.4843 19.194 22.4815C19.1358 22.4504 19.0774 22.4184 19.0196 22.3861C18.917 22.4749 18.8137 22.5645 18.7125 22.6542C18.5686 22.782 18.4161 22.9031 18.2688 23.0275C18.1896 23.0948 18.1098 23.1606 18.029 23.2258C18.0586 23.2419 18.0885 23.2582 18.1179 23.2742C18.4359 23.0567 18.7494 22.8317 19.0581 22.6023ZM11.8083 23.2396C11.8088 23.2383 11.8096 23.2368 11.81 23.2347C11.7624 23.2165 11.7715 23.2232 11.8068 23.2414C11.8077 23.2412 11.8081 23.2404 11.8083 23.2396ZM19.6313 22.1687C19.7168 22.1016 19.8021 22.0329 19.8878 21.9654C19.9534 21.9067 20.0188 21.8473 20.084 21.7878C20.004 21.7425 19.9242 21.6964 19.8453 21.6498C19.6614 21.8193 19.476 21.9867 19.2891 22.1514C19.2607 22.1766 19.2322 22.2015 19.2038 22.2263C19.2726 22.2642 19.3414 22.3018 19.4106 22.3395C19.4844 22.2832 19.5581 22.2267 19.6313 22.1687ZM20.6693 21.234C20.8162 21.0894 20.9626 20.9451 21.1078 20.7991C21.0297 20.7654 20.952 20.7312 20.8761 20.6948C20.8708 20.6926 20.8659 20.6903 20.861 20.6878C20.8153 20.7324 20.77 20.7764 20.7243 20.82C20.4913 21.0446 20.2564 21.2678 20.0188 21.4892C20.1011 21.5332 20.1835 21.577 20.266 21.6198C20.4025 21.4932 20.5366 21.3645 20.6693 21.234ZM21.2932 20.6114C21.5658 20.3323 21.833 20.0459 22.0944 19.7551C22.0842 19.7473 22.0739 19.7401 22.0637 19.7325C22.0159 19.6984 21.9683 19.6639 21.9204 19.6297C21.6269 19.9314 21.33 20.2296 21.0289 20.5244C21.1051 20.5657 21.1815 20.6065 21.2579 20.6474C21.2697 20.6357 21.2813 20.6235 21.2932 20.6114ZM23.2097 18.987C23.3108 18.878 23.4111 18.7682 23.5097 18.6573C23.4871 18.6471 23.4649 18.6365 23.4422 18.6262C23.3586 18.7284 23.2736 18.8304 23.187 18.9279C23.03 19.1034 22.8763 19.2826 22.7193 19.4585C22.63 19.5588 22.5403 19.6585 22.4489 19.7584C22.4504 19.7596 22.452 19.7607 22.4533 19.762C22.7126 19.5084 22.9654 19.2498 23.2097 18.987ZM22.5386 19.2498C22.6336 19.1394 22.7316 19.031 22.8238 18.9186C22.8323 18.9085 22.8408 18.8979 22.8492 18.8873C22.8408 18.8943 22.8323 18.9011 22.8238 18.9076C22.8088 18.9205 22.7858 18.9186 22.7728 18.9036C22.7599 18.8886 22.7618 18.8655 22.7769 18.8526C22.899 18.7369 23.0255 18.6222 23.1497 18.5079C23.155 18.5032 23.1608 18.4979 23.1665 18.4926C23.1279 18.474 23.0899 18.4554 23.052 18.4372C22.732 18.7826 22.4086 19.1252 22.0819 19.4633C22.1352 19.505 22.189 19.5471 22.2421 19.5897C22.3416 19.4767 22.4406 19.3635 22.5386 19.2498ZM24.4483 17.4942C24.331 17.6076 24.1967 17.7329 24.0595 17.858C23.9107 18.048 23.7586 18.2379 23.605 18.4262C23.5997 18.4327 23.5944 18.4393 23.5891 18.4457C23.6143 18.4575 23.6392 18.4696 23.6648 18.4816C23.9397 18.1642 24.2043 17.8377 24.4483 17.4942ZM23.5891 17.9699C23.7635 17.7515 23.9334 17.5255 24.0995 17.2981C24.0936 17.2949 24.0875 17.2921 24.0818 17.2892C23.7959 17.6189 23.5049 17.9446 23.2109 18.2645C23.2461 18.2823 23.2816 18.2997 23.3174 18.3166C23.408 18.2015 23.4973 18.0849 23.5891 17.9699ZM4.46024 17.1404C4.28459 16.9061 4.10937 16.6736 3.94197 16.4334C3.81098 16.2461 3.68401 16.0562 3.55766 15.8622C3.42752 15.6887 3.2961 15.5113 3.16616 15.3325C3.08595 15.2227 3.00913 15.1101 2.92914 15C2.87941 14.9321 2.83031 14.8633 2.78185 14.7945C2.83729 14.8938 2.89422 14.9924 2.95369 15.0895C3.09018 15.3137 3.2252 15.5384 3.37334 15.7553C3.48782 15.9227 3.60422 16.0869 3.72146 16.2524C3.88208 16.4786 4.06217 16.6934 4.23655 16.9089C4.36966 17.0739 4.51674 17.2443 4.6689 17.4058C4.59695 17.3158 4.5269 17.2293 4.46024 17.1404ZM25.2832 16.2472C25.3568 16.1198 25.4288 15.9919 25.498 15.8605C25.4243 15.971 25.3511 16.0802 25.2787 16.1898C25.2028 16.3043 25.1215 16.4171 25.0421 16.5297C25.1234 16.4361 25.2036 16.342 25.2832 16.2472ZM26.9656 14.0657C27.0938 13.878 27.2195 13.6903 27.3419 13.503C27.1829 13.7396 27.0174 13.9743 26.8448 14.2047C26.7658 14.3099 26.689 14.4159 26.6069 14.5188C26.5891 14.541 26.5716 14.5628 26.5542 14.5846C26.5195 14.6515 26.4841 14.7173 26.4486 14.7837C26.6257 14.5474 26.7997 14.3089 26.9656 14.0657ZM26.3026 14.6166C26.3199 14.5948 26.3375 14.5726 26.3549 14.5503C26.4374 14.391 26.5174 14.2312 26.5963 14.0702C26.602 14.0579 26.608 14.0458 26.6128 14.0338C26.5117 14.2238 26.4029 14.4098 26.2929 14.5952C26.2755 14.6244 26.2582 14.6534 26.2408 14.6826C26.2395 14.6883 26.2383 14.6934 26.2372 14.6987C26.259 14.6716 26.2808 14.6441 26.3026 14.6166ZM24.4807 13.4821C24.1301 13.327 23.7748 13.1786 23.4281 13.0152C23.2088 12.912 22.9896 12.8104 22.7712 12.7054C22.4165 12.5346 22.0629 12.3482 21.7228 12.1503C21.3017 11.9059 20.8877 11.6467 20.5039 11.3466C20.32 11.2025 20.1479 11.0603 19.9725 10.906C19.9069 10.8486 19.836 10.7856 19.7759 10.7232C19.7414 10.6908 19.7395 10.6362 19.7718 10.6019C19.804 10.5674 19.8588 10.5655 19.8931 10.5979C19.9898 10.6978 20.1013 10.7875 20.2042 10.8814C20.2988 10.9676 20.4031 11.0461 20.5032 11.1261C20.6365 11.233 20.7771 11.3347 20.9178 11.4319C21.8525 12.078 22.9011 12.5685 23.9476 13.0051C24.2494 13.1308 24.5514 13.2571 24.854 13.3816C25.0171 13.4489 25.1849 13.5132 25.3451 13.587C25.5519 13.6827 25.7529 13.7809 25.9555 13.8852C26.0033 13.9064 26.0251 13.9629 26.0042 14.0107C25.983 14.0583 25.9265 14.0803 25.8787 14.0592C25.4017 13.8873 24.9446 13.6867 24.4807 13.4821ZM28.2557 11.6301C28.5153 11.1322 28.7536 10.608 28.9453 10.08C29.016 9.88554 29.0869 9.68894 29.1483 9.49108C29.3218 8.93199 29.4486 8.36038 29.5273 7.78076C29.5504 7.61125 29.5711 7.43094 29.5808 7.25911C29.5791 6.89257 29.548 6.5273 29.4833 6.16714C29.4393 5.9242 29.3821 5.68464 29.307 5.44932C29.2903 5.44 29.2738 5.43112 29.2573 5.4218C29.2471 5.41651 29.2374 5.41122 29.2276 5.40593C29.2733 5.65395 29.3036 5.90155 29.3159 6.15995C29.3159 6.16312 29.3159 6.16609 29.3155 6.16926C29.3709 6.44352 29.4007 6.73155 29.39 7.00622C29.3813 7.2134 29.3595 7.40259 29.3252 7.59749C29.3599 7.51475 29.395 7.43221 29.431 7.34926C29.3489 7.63284 29.2712 7.92 29.1832 8.20144C29.1153 8.4192 29.0497 8.63908 28.9777 8.85556C28.7786 9.45469 28.5646 10.0512 28.3187 10.633C28.3037 10.6677 28.2891 10.7022 28.2747 10.7361C28.2743 10.7414 28.2739 10.7462 28.273 10.7507C28.2686 10.7763 28.2567 10.7981 28.2406 10.8158C28.1297 11.0719 28.0148 11.3254 27.8972 11.5775C27.8931 11.5872 27.8895 11.5974 27.8859 11.6071C27.618 12.3089 27.3269 12.9981 27.0081 13.6726C27.4667 13.0197 27.8859 12.3389 28.2556 11.6302L28.2557 11.6301ZM23.9856 12.0695C23.3926 11.7368 22.8343 11.3817 22.294 10.9684C22.1592 10.8651 22.0246 10.7612 21.8947 10.652C21.8352 10.6019 21.7722 10.5541 21.715 10.5012C21.5472 10.3446 21.3773 10.1901 21.2107 10.032C21.1847 10.0081 21.1828 9.96722 21.2067 9.94119C21.2304 9.91537 21.2713 9.91347 21.2973 9.93717C21.4624 10.0946 21.6391 10.2389 21.8158 10.3831C21.8805 10.4355 21.9432 10.491 22.0088 10.5424C22.1383 10.6444 22.2648 10.7483 22.3962 10.8486C22.6661 11.0545 22.948 11.2475 23.2349 11.4291C24.0094 11.9195 24.8246 12.3008 25.68 12.6273C25.8815 12.7041 26.0899 12.7805 26.295 12.8461C26.3564 12.8684 26.3883 12.9367 26.3661 12.9981C26.3439 13.0597 26.2755 13.0916 26.2141 13.0694C25.4523 12.7827 24.6968 12.4682 23.9856 12.0695ZM1.20093 11.442C1.19035 11.4177 1.1804 11.394 1.17066 11.3692C0.878626 10.6658 0.634625 9.95746 0.448179 9.2185C0.415801 9.09174 0.386175 8.96476 0.359087 8.83737C0.464264 9.61316 0.679059 10.3795 0.981673 11.1119C1.09616 11.3902 1.22525 11.6727 1.36683 11.9436C1.30863 11.777 1.25362 11.6094 1.20093 11.442ZM28.7969 10.8122C28.8035 10.7964 28.8102 10.7807 28.8147 10.7636C28.8616 10.6715 28.8269 10.7581 28.7831 10.8416C28.7884 10.8321 28.7924 10.8224 28.7969 10.8122ZM29.1514 9.84828C29.1594 9.8231 29.1674 9.79813 29.1723 9.77146C29.1998 9.71602 29.1674 9.81908 29.1247 9.92065C29.1359 9.89441 29.1437 9.87135 29.1514 9.84828ZM27.5195 8.9222C27.4685 8.90379 27.4171 8.88559 27.3678 8.86274C26.7505 8.57937 26.196 8.20542 25.6297 7.83486C25.4056 7.68842 25.1826 7.54134 24.9579 7.39616C24.7955 7.2912 24.6252 7.18644 24.4574 7.09058C24.2908 6.99556 24.1209 6.91112 23.9522 6.82034L23.9643 6.79621C24.0485 6.8415 24.1359 6.88192 24.2199 6.92679C24.4417 7.04487 24.6597 7.16825 24.8777 7.29332C25.3911 7.58747 25.893 7.90366 26.4172 8.17876C26.7398 8.34785 27.0877 8.51545 27.4303 8.63799C27.5418 8.67798 27.6518 8.72729 27.7636 8.76856C27.8554 8.80263 27.9549 8.8293 28.049 8.85808C28.1113 8.87818 28.1453 8.94527 28.125 9.00769C28.1049 9.06991 28.0378 9.10398 27.9754 9.08366C27.8222 9.03076 27.6717 8.97765 27.5195 8.9222ZM29.13 8.05751C29.1527 8.00481 29.1753 7.95233 29.1975 7.89921C29.2153 7.72822 29.2233 7.55913 29.2274 7.38835C29.2096 7.48633 29.1891 7.58368 29.167 7.68251C29.1275 7.85921 29.0725 8.03274 29.0223 8.20712C28.9952 8.3013 28.9673 8.39568 28.9398 8.489C29.0033 8.34595 29.0672 8.20183 29.13 8.05751ZM28.2238 8.12417C27.7752 7.91636 27.354 7.64484 26.939 7.37817C26.6696 7.20549 26.4079 7.02222 26.1486 6.83577L25.3982 6.29422L25.4678 6.43897C25.5556 6.61822 25.6564 6.80424 25.7806 6.94454C25.6483 6.82455 25.5345 6.57483 25.4473 6.42119C25.4261 6.38437 25.4056 6.34353 25.387 6.30586C25.3829 6.29739 25.3618 6.26777 25.3719 6.26184C25.3829 6.25486 25.4056 6.27877 25.4164 6.28575C25.4562 6.31115 25.4957 6.33908 25.5345 6.36617C25.7053 6.4851 25.8828 6.59959 26.0589 6.7107C26.5297 7.00845 27.0131 7.29541 27.5138 7.5392C27.7686 7.66343 28.0365 7.78469 28.3029 7.88098C28.3803 7.90891 28.4563 7.94447 28.5336 7.97324C28.5992 7.99948 28.6311 8.0744 28.6047 8.14C28.5784 8.20539 28.5037 8.23735 28.4381 8.21111C28.3672 8.1819 28.2929 8.15609 28.2237 8.12413L28.2238 8.12417ZM0.581266 6.67161C0.60391 6.35566 0.650893 6.05027 0.69808 5.73752C0.726014 5.55235 0.767706 5.34729 0.814682 5.16613C0.836903 5.08021 0.859123 4.99535 0.882613 4.90837C0.838172 5.00826 0.796056 5.10857 0.756064 5.21142C0.590574 5.63615 0.471642 6.06891 0.394398 6.5053L0.403287 6.55757C0.458307 6.8841 0.502325 7.21168 0.552903 7.53841C0.550999 7.24997 0.560104 6.96135 0.581266 6.67161ZM28.4329 7.01339C28.2837 6.93424 28.1405 6.86165 27.997 6.77065C27.7179 6.59395 27.4529 6.39651 27.1748 6.21855C27.0834 6.15993 26.9905 6.10258 26.8961 6.04862C26.8242 6.00777 26.7497 5.97349 26.6769 5.9354C26.636 5.91403 26.5872 5.89054 26.5442 5.87403C26.5006 5.85731 26.4576 5.83763 26.4145 5.82049C26.359 5.79869 26.2991 5.78303 26.2433 5.76145C26.2246 5.7551 26.2143 5.73394 26.2206 5.71532C26.2272 5.69669 26.2481 5.68632 26.2668 5.69267C26.3239 5.71383 26.3825 5.73119 26.4394 5.75171C26.4904 5.77034 26.5427 5.7934 26.5937 5.81329C26.6305 5.82747 26.6697 5.84694 26.7057 5.86387C26.8339 5.92461 26.959 5.98408 27.0823 6.05433C27.6239 6.36457 28.128 6.7201 28.7271 6.91182C28.7817 6.93341 28.8087 6.99605 28.7874 7.05065C28.7658 7.10525 28.7032 7.13233 28.6486 7.11096C28.5802 7.08535 28.4973 7.04788 28.4329 7.01339ZM0.220999 5.82385C0.251261 5.60122 0.292527 5.37966 0.345012 5.16486C0.356863 5.11217 0.409346 5.07915 0.462042 5.09079C0.470084 5.09291 0.478126 5.09566 0.485532 5.09968C0.567641 4.88806 0.659913 4.68024 0.763394 4.47666C0.964862 4.08029 1.19574 3.72156 1.46681 3.37728C1.5121 3.28945 1.55865 3.20247 1.60669 3.11719C1.66425 3.01476 1.72329 2.90959 1.78953 2.81224C1.46321 3.11486 1.18981 3.41771 0.935184 3.78827C0.880586 3.86805 0.820061 3.95736 0.773925 4.042C0.744721 4.09533 0.712766 4.14676 0.684411 4.20051C0.574369 4.4096 0.475748 4.62651 0.401679 4.85105C0.289731 5.18923 0.220955 5.54222 0.201061 5.89751C0.207621 5.87317 0.214015 5.8484 0.220999 5.82385ZM15.674 5.31532C15.5769 5.21776 15.4815 5.11957 15.3852 5.02159C15.3723 5.03704 15.3592 5.05227 15.3462 5.0673C15.363 5.08867 15.3799 5.11026 15.3972 5.13079C15.3977 5.13036 15.3981 5.12994 15.3989 5.12973C15.43 5.10582 15.4749 5.11174 15.4988 5.14306C15.6368 5.3259 15.7877 5.47425 15.9515 5.60736C15.8596 5.50747 15.7674 5.40992 15.674 5.31532ZM29.2244 5.20295C29.1935 5.1236 29.162 5.04423 29.1318 4.96467C29.1305 4.96213 29.1296 4.9598 29.1282 4.95578C29.1366 4.98689 29.1438 5.0163 29.1512 5.0455C29.166 5.10984 29.1806 5.17333 29.194 5.23681C29.2111 5.24485 29.228 5.2531 29.245 5.26072C29.2386 5.24125 29.2316 5.22179 29.2244 5.20295ZM15.2943 4.98562C15.3027 4.97588 15.3112 4.96572 15.3197 4.9562C15.2299 4.86541 15.1392 4.77569 15.0458 4.68744C15.0325 4.67538 15.0196 4.66332 15.0069 4.65104C15.1028 4.7632 15.195 4.87811 15.2873 4.99366C15.2898 4.99091 15.2917 4.98837 15.2943 4.98562ZM15.5171 4.73167C15.496 4.71389 15.475 4.6959 15.4543 4.6777C15.4492 4.68596 15.4443 4.694 15.4394 4.70162C15.4284 4.71876 15.4147 4.73315 15.3997 4.745C15.4187 4.7632 15.4378 4.78182 15.4564 4.80002C15.4767 4.77738 15.4968 4.75431 15.5171 4.73167ZM15.8479 4.36831C15.8976 4.31498 15.9482 4.26187 16 4.20896C15.9672 4.1823 15.9344 4.15563 15.9021 4.12854C15.886 4.11563 15.8701 4.10209 15.8544 4.08876C15.7448 4.23922 15.6392 4.39223 15.5381 4.54713C15.5656 4.57062 15.5931 4.59326 15.6206 4.61633C15.6955 4.53338 15.7711 4.45084 15.8479 4.36831ZM13.8453 3.81892C13.6216 3.60941 13.382 3.41577 13.1429 3.22407C13.0191 3.1244 12.8947 3.03191 12.7679 2.93668C12.7146 2.89711 12.6583 2.85436 12.603 2.81712C12.431 2.71914 12.2513 2.62687 12.0763 2.54391C11.9453 2.48212 11.8145 2.41863 11.6806 2.36361C11.6148 2.33652 11.5483 2.30901 11.4816 2.28277C11.5297 2.30901 11.5775 2.33567 11.6255 2.36276C12.3639 2.78389 13.054 3.27297 13.7149 3.80606C13.9288 3.97874 14.1485 4.16053 14.3517 4.34612C14.4333 4.42146 14.5146 4.49616 14.5963 4.57193C14.3561 4.31099 14.1036 4.0617 13.8453 3.81899L13.8453 3.81892ZM15.1984 4.44026C15.172 4.41402 15.1462 4.38777 15.1208 4.36068C15.092 4.33275 15.0911 4.28577 15.1191 4.2572C15.147 4.22842 15.194 4.22757 15.2226 4.2555C15.2412 4.27497 15.2606 4.29423 15.2801 4.31328C15.3813 4.15879 15.4884 4.00473 15.5984 3.85744C15.5248 3.79184 15.4511 3.72644 15.3792 3.65957C15.3618 3.68349 15.3444 3.70782 15.3273 3.73174C15.2035 3.9059 15.0903 4.09573 14.9921 4.28579C14.9832 4.30293 14.9743 4.31986 14.9656 4.33679C15.0289 4.39456 15.0916 4.45255 15.1542 4.51117C15.1688 4.48726 15.1834 4.46375 15.1984 4.44026ZM16.574 3.65726C16.498 3.59377 16.4221 3.52986 16.3459 3.46595C16.2083 3.62721 16.076 3.7927 15.9491 3.96136C16.0037 4.00601 16.0579 4.05045 16.1125 4.09489C16.2631 3.94485 16.4176 3.79883 16.574 3.65726ZM16.1393 3.17836C16.4989 2.75955 16.8936 2.37336 17.3204 2.02501C16.8383 2.27177 16.3897 2.57923 15.9978 2.95423C15.8007 3.143 15.6238 3.34002 15.4596 3.55293C15.5313 3.61917 15.6065 3.68307 15.6858 3.74212C15.8342 3.55039 15.981 3.36267 16.1393 3.17836ZM2.75416 2.89076C3.7122 2.36636 4.85645 2.03072 5.93763 1.8936C6.22607 1.8572 6.51622 1.82715 6.80612 1.80938C6.94325 1.80091 7.0808 1.79774 7.21836 1.79245C7.73663 1.77171 8.27988 1.79731 8.79558 1.85064C9.19068 1.89191 9.58556 1.9518 9.97433 2.03878C9.66726 1.9082 9.36106 1.78229 9.04722 1.66505C8.75878 1.55776 8.46673 1.45745 8.17342 1.36455C7.96223 1.32645 7.74997 1.29535 7.53664 1.26699C7.3665 1.24434 7.18006 1.23418 7.00801 1.22741H6.34057C6.23221 1.25937 6.12492 1.29492 6.02271 1.33217C5.96726 1.35227 5.91309 1.37788 5.85764 1.39798C5.7222 1.44771 5.59459 1.52474 5.4636 1.58336C5.43863 1.59585 5.40709 1.58527 5.3944 1.5603C5.38191 1.53511 5.39249 1.50358 5.41747 1.4911C5.55015 1.42909 5.67692 1.3601 5.8132 1.30466C5.84706 1.2909 5.88156 1.27757 5.91457 1.26445C5.82801 1.27418 5.74104 1.28519 5.65301 1.2964C5.48032 1.31926 5.29007 1.35523 5.12099 1.39798C4.97095 1.43607 4.82175 1.47205 4.67404 1.51946C4.45395 1.58972 4.23682 1.6695 4.02436 1.76177C3.92765 1.80367 3.83348 1.85065 3.73846 1.89636C3.61911 1.9535 3.48282 2.02545 3.37151 2.09613C3.28051 2.15454 3.18698 2.20829 3.0964 2.26776C2.7396 2.50118 2.42939 2.77248 2.12676 3.07064C2.01968 3.17624 1.90202 3.30449 1.80848 3.42215C1.73611 3.51315 1.66373 3.60182 1.59369 3.69324C1.94879 3.38046 2.35128 3.1115 2.75424 2.89079L2.75416 2.89076ZM17.5089 2.88547C17.4547 2.8406 17.4001 2.79405 17.3504 2.74791C17.3163 2.71913 17.3119 2.6677 17.3406 2.63384C17.3692 2.59977 17.4206 2.59533 17.4547 2.62411C17.515 2.67998 17.5817 2.73119 17.6456 2.78473C17.9328 2.57586 18.2292 2.37926 18.5346 2.19898C18.3867 2.08661 18.2326 1.98736 18.0671 1.89446C18.065 1.89361 18.0635 1.89192 18.0618 1.89065C18.0307 1.91181 18.0003 1.93318 17.9709 1.95583C17.8862 2.02058 17.7969 2.08767 17.7108 2.15009C17.5882 2.23813 17.4623 2.34944 17.3478 2.44933C17.0283 2.72846 16.7252 3.0328 16.4421 3.35552C16.5085 3.40885 16.5752 3.46154 16.6427 3.51212C16.6598 3.52503 16.6768 3.53794 16.6937 3.55043C16.9559 3.31912 17.2276 3.09628 17.5089 2.88553L17.5089 2.88547ZM2.30071 2.50603C2.39531 2.42476 2.49266 2.34181 2.59296 2.26774C2.71274 2.17992 2.82977 2.09379 2.95357 2.01125C3.13747 1.88872 3.33047 1.77783 3.52539 1.67625C3.47375 1.70017 3.42 1.72493 3.36562 1.74948C3.19505 1.82757 3.01792 1.92957 2.8573 2.02628C2.65985 2.14521 2.46643 2.27134 2.28043 2.4072C2.23472 2.48656 2.18944 2.56592 2.14415 2.64464C2.19579 2.59745 2.24802 2.55131 2.30071 2.50603ZM19.6559 1.62903C19.5759 1.58438 19.4957 1.53994 19.4157 1.4955C19.4019 1.48831 19.3966 1.47011 19.4038 1.45635C19.4112 1.4426 19.4294 1.4373 19.4432 1.4445C19.5365 1.49719 19.6309 1.54883 19.7255 1.59983C20.1295 1.43117 20.5453 1.29234 20.9739 1.18971C20.7982 1.19203 20.6234 1.19859 20.4475 1.20981C19.8302 1.25087 19.2009 1.35266 18.5984 1.55053C18.4852 1.61613 18.3622 1.68512 18.2555 1.76046C18.205 1.79601 18.1527 1.83008 18.1008 1.86437C18.1535 1.89505 18.2113 1.92193 18.261 1.95494C18.3048 1.98415 18.3542 2.00933 18.3963 2.03917C18.4585 2.08403 18.5216 2.12657 18.5844 2.17017C18.931 1.96806 19.2885 1.78584 19.6559 1.62903ZM11.1026 2.04763C11.1191 2.00234 11.1701 1.97885 11.2154 1.99557C11.2668 2.01652 11.3197 2.03556 11.3729 2.05419C10.3547 1.51772 9.26933 1.12285 8.14075 1.04814C8.16635 1.05576 8.19217 1.0638 8.21757 1.07163C8.3128 1.08899 8.40781 1.10761 8.50368 1.12772C8.77879 1.18655 9.03993 1.26421 9.30976 1.34103C9.45578 1.38272 9.59904 1.4388 9.74274 1.48705C9.88177 1.53361 10.0214 1.59096 10.1577 1.64598C10.3526 1.72492 10.5514 1.80851 10.7401 1.9012C10.8599 1.96024 10.9788 2.01928 11.0969 2.07918C11.0969 2.06902 11.0986 2.05821 11.1026 2.04763Z" fill="black"/>
</svg>
